<svg width="3300" height="2200" viewBox="0 0 3300 2200" fill="none" xmlns="http://www.w3.org/2000/svg">
<rect width="3300" height="2200" fill="#E5E5E5"/>
<g id="figure.on.handboard">
<g id="Notes">
<path id="artboard" d="M3300 0H0V2200H3300V0Z" fill="white"/>
<path id="Vector" d="M263 292H3036" stroke="black" stroke-width="0.5"/>
<text id="Weight/Scale Variations" fill="black" xml:space="preserve" style="white-space: pre" font-family="Roboto" font-size="13" font-weight="bold" letter-spacing="0em"><tspan x="263" y="320.943">Weight/Scale Variations</tspan></text>
<text id="Ultralight" fill="black" xml:space="preserve" style="white-space: pre" font-family="Roboto" font-size="13" letter-spacing="0em"><tspan x="533.211" y="320.943">Ultralight</tspan></text>
<text id="Thin" fill="black" xml:space="preserve" style="white-space: pre" font-family="Roboto" font-size="13" letter-spacing="0em"><tspan x="843.422" y="320.943">Thin</tspan></text>
<text id="Light" fill="black" xml:space="preserve" style="white-space: pre" font-family="Roboto" font-size="13" letter-spacing="0em"><tspan x="1138.63" y="320.943">Light</tspan></text>
<text id="Regular" fill="black" xml:space="preserve" style="white-space: pre" font-family="Roboto" font-size="13" letter-spacing="0em"><tspan x="1427.34" y="320.943">Regular</tspan></text>
<text id="Medium" fill="black" xml:space="preserve" style="white-space: pre" font-family="Roboto" font-size="13" letter-spacing="0em"><tspan x="1722.56" y="320.943">Medium</tspan></text>
<text id="Semibold" fill="black" xml:space="preserve" style="white-space: pre" font-family="Roboto" font-size="13" letter-spacing="0em"><tspan x="2015.77" y="320.943">Semibold</tspan></text>
<text id="Bold" fill="black" xml:space="preserve" style="white-space: pre" font-family="Roboto" font-size="13" letter-spacing="0em"><tspan x="2326.48" y="320.943">Bold</tspan></text>
<text id="Heavy" fill="black" xml:space="preserve" style="white-space: pre" font-family="Roboto" font-size="13" letter-spacing="0em"><tspan x="2618.69" y="320.943">Heavy</tspan></text>
<text id="Black" fill="black" xml:space="preserve" style="white-space: pre" font-family="Roboto" font-size="13" letter-spacing="0em"><tspan x="2917.4" y="320.943">Black</tspan></text>
<path id="Vector_2" d="M263 1903H3036" stroke="black" stroke-width="0.5"/>
<g id="Group">
<path id="Vector_3" d="M272.248 1933.83C273.329 1933.83 274.344 1933.62 275.295 1933.21C276.245 1932.8 277.084 1932.23 277.81 1931.51C278.535 1930.78 279.105 1929.94 279.519 1928.99C279.932 1928.04 280.139 1927.02 280.139 1925.95C280.139 1924.87 279.932 1923.86 279.519 1922.91C279.105 1921.96 278.534 1921.12 277.805 1920.39C277.075 1919.66 276.236 1919.09 275.285 1918.68C274.335 1918.27 273.319 1918.07 272.238 1918.07C271.164 1918.07 270.152 1918.27 269.201 1918.68C268.251 1919.09 267.414 1919.66 266.691 1920.39C265.969 1921.12 265.401 1921.96 264.987 1922.91C264.574 1923.86 264.367 1924.87 264.367 1925.95C264.367 1927.02 264.574 1928.04 264.987 1928.99C265.401 1929.94 265.97 1930.78 266.696 1931.51C267.422 1932.23 268.26 1932.8 269.211 1933.21C270.161 1933.62 271.174 1933.83 272.248 1933.83ZM272.248 1932.35C271.363 1932.35 270.534 1932.18 269.763 1931.85C268.991 1931.52 268.314 1931.07 267.731 1930.48C267.149 1929.89 266.693 1929.21 266.364 1928.44C266.035 1927.66 265.871 1926.83 265.871 1925.95C265.871 1925.06 266.034 1924.23 266.359 1923.46C266.685 1922.68 267.139 1922 267.722 1921.42C268.304 1920.83 268.981 1920.37 269.753 1920.05C270.524 1919.72 271.353 1919.55 272.238 1919.55C273.13 1919.55 273.962 1919.72 274.733 1920.05C275.505 1920.37 276.184 1920.83 276.769 1921.42C277.355 1922 277.814 1922.68 278.146 1923.46C278.478 1924.23 278.644 1925.06 278.644 1925.95C278.644 1926.83 278.48 1927.66 278.151 1928.44C277.823 1929.21 277.367 1929.89 276.784 1930.48C276.202 1931.07 275.523 1931.52 274.748 1931.85C273.973 1932.18 273.14 1932.35 272.248 1932.35ZM268.654 1925.95C268.654 1926.16 268.723 1926.34 268.859 1926.47C268.996 1926.61 269.178 1926.67 269.406 1926.67H271.516V1928.79C271.516 1929.01 271.581 1929.18 271.711 1929.32C271.841 1929.46 272.017 1929.53 272.238 1929.53C272.453 1929.53 272.631 1929.46 272.771 1929.32C272.91 1929.18 272.98 1929.01 272.98 1928.79V1926.67H275.09C275.311 1926.67 275.49 1926.61 275.627 1926.47C275.764 1926.34 275.832 1926.16 275.832 1925.95C275.832 1925.73 275.764 1925.55 275.627 1925.41C275.49 1925.28 275.311 1925.21 275.09 1925.21H272.98V1923.1C272.98 1922.88 272.91 1922.7 272.771 1922.56C272.631 1922.42 272.453 1922.35 272.238 1922.35C272.017 1922.35 271.841 1922.42 271.711 1922.56C271.581 1922.7 271.516 1922.88 271.516 1923.1V1925.21H269.406C269.178 1925.21 268.996 1925.28 268.859 1925.41C268.723 1925.55 268.654 1925.73 268.654 1925.95Z" fill="black"/>
</g>
<g id="Group_2">
<path id="Vector_4" d="M293.576 1935.91C294.937 1935.91 296.218 1935.65 297.419 1935.13C298.62 1934.61 299.68 1933.89 300.598 1932.97C301.516 1932.05 302.235 1930.99 302.756 1929.79C303.277 1928.59 303.537 1927.31 303.537 1925.95C303.537 1924.59 303.277 1923.31 302.756 1922.11C302.235 1920.91 301.516 1919.85 300.598 1918.93C299.68 1918.01 298.618 1917.29 297.414 1916.77C296.21 1916.25 294.927 1915.99 293.566 1915.99C292.206 1915.99 290.925 1916.25 289.724 1916.77C288.522 1917.29 287.465 1918.01 286.55 1918.93C285.635 1919.85 284.917 1920.91 284.396 1922.11C283.876 1923.31 283.615 1924.59 283.615 1925.95C283.615 1927.31 283.876 1928.59 284.396 1929.79C284.917 1930.99 285.637 1932.05 286.555 1932.97C287.473 1933.89 288.532 1934.61 289.733 1935.13C290.935 1935.65 292.215 1935.91 293.576 1935.91ZM293.576 1934.25C292.424 1934.25 291.346 1934.04 290.344 1933.61C289.341 1933.18 288.461 1932.58 287.702 1931.82C286.944 1931.06 286.351 1930.18 285.925 1929.18C285.498 1928.18 285.285 1927.1 285.285 1925.95C285.285 1924.8 285.498 1923.72 285.925 1922.72C286.351 1921.71 286.942 1920.83 287.697 1920.07C288.452 1919.31 289.331 1918.71 290.334 1918.29C291.337 1917.86 292.414 1917.65 293.566 1917.65C294.719 1917.65 295.796 1917.86 296.799 1918.29C297.801 1918.71 298.684 1919.31 299.445 1920.07C300.207 1920.83 300.803 1921.71 301.232 1922.72C301.662 1923.72 301.877 1924.8 301.877 1925.95C301.877 1927.1 301.664 1928.18 301.237 1929.18C300.811 1930.18 300.218 1931.06 299.46 1931.82C298.702 1932.58 297.819 1933.18 296.813 1933.61C295.808 1934.04 294.729 1934.25 293.576 1934.25ZM289.045 1925.95C289.045 1926.18 289.123 1926.38 289.279 1926.53C289.436 1926.68 289.637 1926.75 289.885 1926.75H292.756V1929.63C292.756 1929.88 292.831 1930.08 292.98 1930.23C293.13 1930.38 293.322 1930.46 293.557 1930.46C293.804 1930.46 294.004 1930.38 294.157 1930.23C294.31 1930.08 294.387 1929.88 294.387 1929.63V1926.75H297.268C297.515 1926.75 297.715 1926.68 297.868 1926.53C298.021 1926.38 298.098 1926.18 298.098 1925.95C298.098 1925.7 298.021 1925.5 297.868 1925.35C297.715 1925.2 297.515 1925.12 297.268 1925.12H294.387V1922.25C294.387 1921.99 294.31 1921.79 294.157 1921.64C294.004 1921.48 293.804 1921.41 293.557 1921.41C293.322 1921.41 293.13 1921.49 292.98 1921.64C292.831 1921.8 292.756 1922 292.756 1922.25V1925.12H289.885C289.631 1925.12 289.427 1925.2 289.274 1925.35C289.121 1925.5 289.045 1925.7 289.045 1925.95Z" fill="black"/>
</g>
<g id="Group_3">
<path id="Vector_5" d="M320.617 1938.66C322.01 1938.66 323.34 1938.45 324.606 1938.01C325.872 1937.58 327.036 1936.97 328.097 1936.19C329.158 1935.41 330.081 1934.49 330.866 1933.43C331.65 1932.37 332.259 1931.2 332.692 1929.93C333.125 1928.66 333.341 1927.34 333.341 1925.95C333.341 1924.56 333.125 1923.23 332.692 1921.96C332.259 1920.69 331.65 1919.53 330.866 1918.47C330.081 1917.41 329.158 1916.48 328.097 1915.7C327.036 1914.92 325.871 1914.31 324.601 1913.87C323.332 1913.44 322 1913.22 320.607 1913.22C319.214 1913.22 317.884 1913.44 316.618 1913.87C315.351 1914.31 314.189 1914.92 313.131 1915.7C312.073 1916.48 311.152 1917.41 310.368 1918.47C309.583 1919.53 308.976 1920.69 308.546 1921.96C308.117 1923.23 307.902 1924.56 307.902 1925.95C307.902 1927.34 308.118 1928.66 308.551 1929.93C308.984 1931.2 309.591 1932.37 310.373 1933.43C311.154 1934.49 312.075 1935.41 313.136 1936.19C314.197 1936.97 315.361 1937.58 316.627 1938.01C317.894 1938.45 319.223 1938.66 320.617 1938.66ZM320.617 1936.85C319.412 1936.85 318.265 1936.66 317.174 1936.3C316.084 1935.93 315.086 1935.41 314.181 1934.75C313.276 1934.08 312.49 1933.3 311.823 1932.39C311.155 1931.48 310.639 1930.48 310.275 1929.39C309.91 1928.3 309.728 1927.15 309.728 1925.95C309.728 1924.74 309.91 1923.59 310.275 1922.5C310.639 1921.41 311.154 1920.41 311.818 1919.5C312.482 1918.59 313.266 1917.8 314.171 1917.14C315.076 1916.48 316.074 1915.96 317.165 1915.6C318.255 1915.23 319.402 1915.05 320.607 1915.05C321.818 1915.05 322.969 1915.23 324.059 1915.6C325.15 1915.96 326.149 1916.48 327.057 1917.14C327.965 1917.8 328.751 1918.59 329.415 1919.5C330.08 1920.41 330.596 1921.41 330.963 1922.5C331.331 1923.59 331.515 1924.74 331.515 1925.95C331.522 1927.15 331.343 1928.3 330.978 1929.39C330.613 1930.48 330.098 1931.48 329.43 1932.39C328.763 1933.3 327.975 1934.08 327.067 1934.75C326.159 1935.41 325.159 1935.93 324.069 1936.3C322.978 1936.66 321.828 1936.85 320.617 1936.85ZM314.845 1925.95C314.845 1926.2 314.931 1926.41 315.104 1926.58C315.277 1926.75 315.496 1926.83 315.763 1926.83H319.708V1930.78C319.708 1931.05 319.791 1931.27 319.957 1931.44C320.123 1931.61 320.337 1931.7 320.597 1931.7C320.864 1931.7 321.084 1931.62 321.256 1931.45C321.429 1931.28 321.515 1931.06 321.515 1930.78V1926.83H325.47C325.737 1926.83 325.955 1926.75 326.124 1926.58C326.294 1926.41 326.378 1926.2 326.378 1925.95C326.378 1925.68 326.294 1925.45 326.124 1925.29C325.955 1925.12 325.737 1925.03 325.47 1925.03H321.515V1921.09C321.515 1920.81 321.429 1920.59 321.256 1920.42C321.084 1920.24 320.864 1920.16 320.597 1920.16C320.337 1920.16 320.123 1920.24 319.957 1920.42C319.791 1920.59 319.708 1920.81 319.708 1921.09V1925.03H315.763C315.49 1925.03 315.268 1925.12 315.099 1925.29C314.93 1925.45 314.845 1925.68 314.845 1925.95Z" fill="black"/>
</g>
<text id="Design Variations" fill="black" xml:space="preserve" style="white-space: pre" font-family="Roboto" font-size="13" font-weight="bold" letter-spacing="0em"><tspan x="263" y="1951.94">Design Variations</tspan></text>
<text id="Symbols are supported in up to nine weights and three scales." fill="black" xml:space="preserve" style="white-space: pre" font-family="Roboto" font-size="13" letter-spacing="0em"><tspan x="263" y="1969.94">Symbols are supported in up to nine weights and three scales.</tspan></text>
<text id="For optimal layout with text and other symbols, vertically align" fill="black" xml:space="preserve" style="white-space: pre" font-family="Roboto" font-size="13" letter-spacing="0em"><tspan x="263" y="1987.94">For optimal layout with text and other symbols, vertically align</tspan></text>
<text id="symbols with the adjacent text." fill="black" xml:space="preserve" style="white-space: pre" font-family="Roboto" font-size="13" letter-spacing="0em"><tspan x="263" y="2005.94">symbols with the adjacent text.</tspan></text>
<path id="Vector_6" d="M776 1919V1933" stroke="#00AEEF" stroke-width="0.5"/>
<g id="Group_4">
<path id="Vector_7" d="M779.311 1933.16C779.571 1933.16 779.773 1933.1 779.916 1932.99C780.059 1932.88 780.176 1932.69 780.268 1932.41L781.527 1928.97H787.289L788.549 1932.41C788.64 1932.69 788.757 1932.88 788.9 1932.99C789.044 1933.1 789.242 1933.16 789.496 1933.16C789.757 1933.16 789.963 1933.08 790.116 1932.94C790.269 1932.8 790.346 1932.6 790.346 1932.36C790.346 1932.21 790.31 1932.03 790.238 1931.83L785.658 1919.63C785.541 1919.33 785.382 1919.11 785.18 1918.96C784.978 1918.81 784.721 1918.73 784.408 1918.73C783.803 1918.73 783.393 1919.03 783.178 1919.62L778.598 1931.84C778.526 1932.04 778.49 1932.22 778.49 1932.37C778.49 1932.61 778.563 1932.81 778.71 1932.95C778.856 1933.09 779.057 1933.16 779.311 1933.16ZM782.006 1927.48L784.379 1920.91H784.428L786.801 1927.48H782.006Z" fill="black"/>
</g>
<path id="Vector_8" d="M793.197 1919V1933" stroke="#00AEEF" stroke-width="0.5"/>
<text id="Margins" fill="black" xml:space="preserve" style="white-space: pre" font-family="Roboto" font-size="13" font-weight="bold" letter-spacing="0em"><tspan x="776" y="1951.94">Margins</tspan></text>
<text id="Leading and trailing margins on the left and right side of each symbol" fill="black" xml:space="preserve" style="white-space: pre" font-family="Roboto" font-size="13" letter-spacing="0em"><tspan x="776" y="1969.94">Leading and trailing margins on the left and right side of each symbol</tspan></text>
<text id="can be adjusted by modifying the x-location of the margin guidelines." fill="black" xml:space="preserve" style="white-space: pre" font-family="Roboto" font-size="13" letter-spacing="0em"><tspan x="776" y="1987.94">can be adjusted by modifying the x-location of the margin guidelines.</tspan></text>
<text id="Modifications are automatically applied proportionally to all" fill="black" xml:space="preserve" style="white-space: pre" font-family="Roboto" font-size="13" letter-spacing="0em"><tspan x="776" y="2005.94">Modifications are automatically applied proportionally to all</tspan></text>
<text id="scales and weights." fill="black" xml:space="preserve" style="white-space: pre" font-family="Roboto" font-size="13" letter-spacing="0em"><tspan x="776" y="2023.94">scales and weights.</tspan></text>
<g id="Group_5">
<path id="Vector_9" d="M1291.84 1934.87L1293.54 1936.57C1293.97 1937.01 1294.43 1937.21 1294.9 1937.18C1295.38 1937.15 1295.85 1936.87 1296.31 1936.36L1307.01 1924.57L1306.04 1923.6L1295.43 1935.28C1295.25 1935.48 1295.07 1935.59 1294.89 1935.62C1294.71 1935.64 1294.51 1935.54 1294.27 1935.3L1293.1 1934.14C1292.87 1933.91 1292.76 1933.7 1292.79 1933.52C1292.82 1933.34 1292.94 1933.16 1293.14 1932.98L1304.62 1922.18L1303.64 1921.21L1292.05 1932.1C1291.55 1932.56 1291.29 1933.02 1291.25 1933.5C1291.22 1933.97 1291.41 1934.43 1291.84 1934.87ZM1298.26 1916.67C1298.05 1916.87 1297.93 1917.1 1297.91 1917.37C1297.88 1917.63 1297.93 1917.85 1298.04 1918.05C1298.16 1918.23 1298.33 1918.37 1298.56 1918.46C1298.78 1918.55 1299.06 1918.56 1299.38 1918.48C1300.11 1918.31 1300.85 1918.24 1301.6 1918.27C1302.35 1918.3 1303.08 1918.55 1303.8 1919.02L1303.21 1920.47C1303.04 1920.89 1302.99 1921.25 1303.07 1921.56C1303.14 1921.87 1303.31 1922.16 1303.58 1922.43L1305.88 1924.75C1306.12 1925 1306.35 1925.14 1306.58 1925.18C1306.81 1925.22 1307.06 1925.21 1307.34 1925.16L1308.4 1924.96L1309.07 1925.64L1309.03 1926.19C1309.01 1926.44 1309.04 1926.67 1309.12 1926.88C1309.2 1927.09 1309.36 1927.31 1309.61 1927.55L1310.37 1928.29C1310.61 1928.53 1310.87 1928.66 1311.15 1928.67C1311.44 1928.68 1311.7 1928.57 1311.93 1928.33L1314.84 1925.41C1315.07 1925.18 1315.19 1924.92 1315.18 1924.65C1315.18 1924.37 1315.05 1924.11 1314.81 1923.87L1314.04 1923.11C1313.8 1922.87 1313.59 1922.7 1313.38 1922.61C1313.18 1922.53 1312.95 1922.49 1312.71 1922.51L1312.14 1922.56L1311.49 1921.93L1311.73 1920.8C1311.8 1920.52 1311.79 1920.26 1311.7 1920.02C1311.6 1919.77 1311.41 1919.5 1311.12 1919.21L1308.92 1917.02C1308.09 1916.2 1307.2 1915.58 1306.26 1915.16C1305.32 1914.75 1304.37 1914.53 1303.42 1914.52C1302.47 1914.5 1301.55 1914.68 1300.67 1915.04C1299.78 1915.41 1298.98 1915.95 1298.26 1916.67ZM1299.75 1917.04C1300.36 1916.6 1301.01 1916.28 1301.7 1916.1C1302.39 1915.91 1303.1 1915.85 1303.8 1915.92C1304.51 1915.98 1305.2 1916.17 1305.87 1916.49C1306.54 1916.8 1307.15 1917.24 1307.7 1917.79L1310.13 1920.21C1310.25 1920.32 1310.32 1920.44 1310.35 1920.55C1310.38 1920.66 1310.38 1920.8 1310.34 1920.97L1310.02 1922.45L1311.52 1923.94L1312.51 1923.88C1312.63 1923.87 1312.72 1923.88 1312.79 1923.9C1312.85 1923.93 1312.94 1923.99 1313.03 1924.08L1313.61 1924.66L1311.17 1927.1L1310.59 1926.53C1310.49 1926.43 1310.43 1926.35 1310.41 1926.28C1310.38 1926.22 1310.37 1926.12 1310.38 1925.99L1310.45 1925.01L1308.95 1923.53L1307.43 1923.78C1307.27 1923.81 1307.14 1923.82 1307.04 1923.8C1306.95 1923.77 1306.84 1923.7 1306.72 1923.59L1304.71 1921.58C1304.58 1921.47 1304.51 1921.35 1304.49 1921.25C1304.48 1921.14 1304.51 1920.99 1304.59 1920.81L1305.47 1918.72C1304.68 1917.99 1303.8 1917.49 1302.83 1917.21C1301.85 1916.93 1300.86 1916.94 1299.84 1917.24C1299.76 1917.26 1299.71 1917.24 1299.69 1917.19C1299.67 1917.15 1299.69 1917.1 1299.75 1917.04Z" fill="black"/>
</g>
<text id="Exporting" fill="black" xml:space="preserve" style="white-space: pre" font-family="Roboto" font-size="13" font-weight="bold" letter-spacing="0em"><tspan x="1289" y="1951.94">Exporting</tspan></text>
<text id="Symbols should be outlined when exporting to ensure the" fill="black" xml:space="preserve" style="white-space: pre" font-family="Roboto" font-size="13" letter-spacing="0em"><tspan x="1289" y="1969.94">Symbols should be outlined when exporting to ensure the</tspan></text>
<text id="design is preserved when submitting to Xcode." fill="black" xml:space="preserve" style="white-space: pre" font-family="Roboto" font-size="13" letter-spacing="0em"><tspan x="1289" y="1987.94">design is preserved when submitting to Xcode.</tspan></text>
<text id="template-version" fill="black" xml:space="preserve" style="white-space: pre" font-family="Roboto" font-size="13" letter-spacing="0em"><tspan x="2951" y="1931.94">Template v.3.0</tspan></text>
<text id="Requires Xcode 13 or greater" fill="black" xml:space="preserve" style="white-space: pre" font-family="Roboto" font-size="13" letter-spacing="0em"><tspan x="2868" y="1949.94">Requires Xcode 13 or greater</tspan></text>
<text id="descriptive-name" fill="black" xml:space="preserve" style="white-space: pre" font-family="Roboto" font-size="13" letter-spacing="0em"><tspan x="2825" y="1967.94">Generated from figure.on.handboard</tspan></text>
<text id="Typeset at 100 points" fill="black" xml:space="preserve" style="white-space: pre" font-family="Roboto" font-size="13" letter-spacing="0em"><tspan x="2911" y="1985.94">Typeset at 100 points</tspan></text>
<text id="Small" fill="black" xml:space="preserve" style="white-space: pre" font-family="Roboto" font-size="13" letter-spacing="0em"><tspan x="263" y="724.943">Small</tspan></text>
<text id="Medium_2" fill="black" xml:space="preserve" style="white-space: pre" font-family="Roboto" font-size="13" letter-spacing="0em"><tspan x="263" y="1154.94">Medium</tspan></text>
<text id="Large" fill="black" xml:space="preserve" style="white-space: pre" font-family="Roboto" font-size="13" letter-spacing="0em"><tspan x="263" y="1584.94">Large</tspan></text>
</g>
<g id="Guides">
<g id="H-reference">
<path id="Vector_10" d="M339.993 696H342.638L368.328 628.867H369.03V625.541H367.123L339.993 696ZM350.688 671.52H385.982L385.231 669.271H351.438L350.688 671.52ZM394.119 696H396.764L369.638 625.541H368.433V628.867L394.119 696Z" fill="#27AAE1"/>
</g>
<path id="Baseline-S" d="M263 696H3036" stroke="#27AAE1" stroke-width="0.5"/>
<path id="Capline-S" d="M263 625.541H3036" stroke="#27AAE1" stroke-width="0.5"/>
<g id="H-reference_2">
<path id="Vector_11" d="M339.993 1126H342.638L368.328 1058.87H369.03V1055.54H367.123L339.993 1126ZM350.688 1101.52H385.982L385.231 1099.27H351.438L350.688 1101.52ZM394.119 1126H396.764L369.638 1055.54H368.433V1058.87L394.119 1126Z" fill="#27AAE1"/>
</g>
<path id="Baseline-M" d="M263 1126H3036" stroke="#27AAE1" stroke-width="0.5"/>
<path id="Capline-M" d="M263 1055.54H3036" stroke="#27AAE1" stroke-width="0.5"/>
<g id="H-reference_3">
<path id="Vector_12" d="M339.993 1556H342.638L368.328 1488.87H369.03V1485.54H367.123L339.993 1556ZM350.688 1531.52H385.982L385.231 1529.27H351.438L350.688 1531.52ZM394.119 1556H396.764L369.638 1485.54H368.433V1488.87L394.119 1556Z" fill="#27AAE1"/>
</g>
<path id="Baseline-L" d="M263 1556H3036" stroke="#27AAE1" stroke-width="0.5"/>
<path id="Capline-L" d="M263 1485.54H3036" stroke="#27AAE1" stroke-width="0.5"/>
<path id="left-margin-Regular-M" d="M1409.4 1030.78V1150.12" stroke="#00AEEF" stroke-width="0.5"/>
<path id="right-margin-Regular-M" d="M1490.29 1030.78V1150.12" stroke="#00AEEF" stroke-width="0.5"/>
</g>
<g id="Symbols">
<g id="Black-L">
<g id="Vector_13">
<path d="M2944.48 1605.86C2945.92 1607.29 2947.75 1608 2949.98 1608C2952.2 1608 2954.05 1607.29 2955.52 1605.86C2957 1604.43 2957.73 1602.39 2957.73 1599.72V1502.31C2957.73 1500.87 2957.96 1499.59 2958.41 1498.47C2958.86 1497.35 2959.71 1496.37 2960.96 1495.53L2977.24 1483.69C2978.97 1482.43 2980.34 1480.9 2981.35 1479.11C2982.36 1477.32 2982.95 1475.01 2983.13 1472.18L2984.81 1446.08C2984.93 1443.66 2984.36 1441.73 2983.09 1440.29C2981.82 1438.85 2980.14 1438.09 2978.05 1438.02C2975.99 1437.89 2974.25 1438.45 2972.83 1439.69C2971.4 1440.93 2970.63 1442.78 2970.5 1445.24L2968.8 1471.77L2960.06 1477.9C2958.17 1479.26 2956.48 1480.18 2954.98 1480.66C2953.47 1481.14 2951.57 1481.37 2949.26 1481.37H2939.33H2938.49H2928.56C2926.25 1481.37 2924.35 1481.14 2922.85 1480.66C2921.35 1480.18 2919.65 1479.26 2917.76 1477.9L2909.03 1471.77L2907.32 1445.24C2907.2 1442.78 2906.42 1440.93 2905 1439.69C2903.57 1438.45 2901.83 1437.89 2899.78 1438.02C2897.69 1438.09 2896.01 1438.85 2894.74 1440.29C2893.47 1441.73 2892.89 1443.66 2893.02 1446.08L2894.69 1472.18C2894.87 1475.01 2895.47 1477.32 2896.47 1479.11C2897.48 1480.9 2898.85 1482.43 2900.59 1483.69L2916.86 1495.53C2918.11 1496.37 2918.96 1497.35 2919.41 1498.47C2919.87 1499.59 2920.09 1500.87 2920.09 1502.31V1599.72C2920.09 1602.39 2920.83 1604.43 2922.3 1605.86C2923.77 1607.29 2925.62 1608 2927.85 1608C2930.07 1608 2931.9 1607.29 2933.35 1605.86C2934.79 1604.43 2935.51 1602.39 2935.51 1599.72V1545.33C2935.51 1542.92 2936.79 1541.13 2938.79 1541.13C2940.79 1541.13 2942.31 1542.92 2942.31 1545.33V1599.72C2942.31 1602.39 2943.04 1604.43 2944.48 1605.86Z" fill="black"/>
<path d="M2950.41 1445.64C2947.25 1442.42 2943.41 1440.76 2938.91 1440.67C2934.41 1440.76 2930.58 1442.42 2927.42 1445.64C2924.16 1448.96 2922.53 1452.96 2922.53 1457.65C2922.53 1462.25 2924.16 1466.21 2927.42 1469.51C2930.58 1472.71 2934.41 1474.36 2938.91 1474.46C2943.41 1474.36 2947.25 1472.71 2950.41 1469.51C2953.67 1466.21 2955.3 1462.25 2955.3 1457.65C2955.3 1452.96 2953.67 1448.96 2950.41 1445.64Z" fill="black"/>
</g>
</g>
<g id="Heavy-L">
<g id="Vector_14">
<path d="M2646.45 1598.98C2647.81 1600.33 2649.53 1601 2651.63 1601C2653.72 1601 2655.46 1600.33 2656.85 1598.98C2658.23 1597.64 2658.93 1595.72 2658.93 1593.21V1501.53C2658.93 1500.17 2659.14 1498.97 2659.56 1497.91C2659.99 1496.86 2660.79 1495.94 2661.96 1495.15L2677.28 1484.01C2678.92 1482.82 2680.21 1481.38 2681.15 1479.69C2682.1 1478.01 2682.66 1475.83 2682.83 1473.17L2684.41 1448.6C2684.52 1446.33 2683.98 1444.51 2682.79 1443.15C2681.59 1441.8 2680.01 1441.08 2678.04 1441.02C2676.11 1440.9 2674.47 1441.43 2673.13 1442.59C2671.79 1443.76 2671.06 1445.5 2670.95 1447.81L2669.34 1472.78L2661.12 1478.56C2659.34 1479.83 2657.74 1480.7 2656.33 1481.15C2654.92 1481.6 2653.12 1481.82 2650.96 1481.82H2641.61H2640.82H2631.47C2629.3 1481.82 2627.51 1481.6 2626.09 1481.15C2624.68 1480.7 2623.08 1479.83 2621.31 1478.56L2613.08 1472.78L2611.48 1447.81C2611.36 1445.5 2610.63 1443.76 2609.29 1442.59C2607.95 1441.43 2606.31 1440.9 2604.38 1441.02C2602.41 1441.08 2600.83 1441.8 2599.63 1443.15C2598.44 1444.51 2597.9 1446.33 2598.02 1448.6L2599.59 1473.17C2599.76 1475.83 2600.32 1478.01 2601.27 1479.69C2602.22 1481.38 2603.51 1482.82 2605.14 1484.01L2620.46 1495.15C2621.63 1495.94 2622.43 1496.86 2622.86 1497.91C2623.29 1498.97 2623.5 1500.17 2623.5 1501.53V1593.21C2623.5 1595.72 2624.19 1597.64 2625.58 1598.98C2626.96 1600.33 2628.7 1601 2630.8 1601C2632.89 1601 2634.62 1600.33 2635.97 1598.98C2637.33 1597.64 2638.01 1595.72 2638.01 1593.21V1542.02C2638.01 1539.74 2639.21 1538.06 2641.09 1538.06C2642.98 1538.06 2644.41 1539.74 2644.41 1542.02V1593.21C2644.41 1595.72 2645.09 1597.64 2646.45 1598.98Z" fill="black"/>
<path d="M2652.03 1448.19C2649.05 1445.16 2645.45 1443.6 2641.21 1443.51C2636.98 1443.6 2633.37 1445.16 2630.39 1448.19C2627.32 1451.31 2625.79 1455.08 2625.79 1459.5C2625.79 1463.83 2627.32 1467.55 2630.39 1470.66C2633.37 1473.67 2636.98 1475.22 2641.21 1475.31C2645.45 1475.22 2649.05 1473.67 2652.03 1470.66C2655.1 1467.55 2656.63 1463.83 2656.63 1459.5C2656.63 1455.08 2655.1 1451.31 2652.03 1448.19Z" fill="black"/>
</g>
</g>
<g id="Bold-L">
<g id="Vector_15">
<path d="M2349.54 1597.02C2350.87 1598.34 2352.57 1599 2354.62 1599C2356.68 1599 2358.38 1598.34 2359.74 1597.02C2361.1 1595.7 2361.78 1593.82 2361.78 1591.36V1501.39C2361.78 1500.06 2361.99 1498.88 2362.41 1497.85C2362.83 1496.81 2363.61 1495.91 2364.77 1495.13L2379.8 1484.2C2381.4 1483.03 2382.67 1481.62 2383.59 1479.97C2384.52 1478.32 2385.07 1476.18 2385.24 1473.56L2386.79 1449.46C2386.9 1447.23 2386.37 1445.45 2385.2 1444.11C2384.03 1442.78 2382.47 1442.08 2380.54 1442.02C2378.65 1441.9 2377.04 1442.42 2375.72 1443.56C2374.41 1444.71 2373.69 1446.41 2373.58 1448.68L2372 1473.18L2363.93 1478.85C2362.19 1480.1 2360.62 1480.95 2359.24 1481.39C2357.85 1481.84 2356.09 1482.06 2353.96 1482.06H2344.79H2344.01H2334.84C2332.71 1482.06 2330.95 1481.84 2329.57 1481.39C2328.18 1480.95 2326.61 1480.1 2324.87 1478.85L2316.8 1473.18L2315.23 1448.68C2315.11 1446.41 2314.4 1444.71 2313.08 1443.56C2311.76 1442.42 2310.16 1441.9 2308.26 1442.02C2306.33 1442.08 2304.78 1442.78 2303.6 1444.11C2302.43 1445.45 2301.9 1447.23 2302.01 1449.46L2303.56 1473.56C2303.73 1476.18 2304.28 1478.32 2305.21 1479.97C2306.14 1481.62 2307.4 1483.03 2309.01 1484.2L2324.04 1495.13C2325.19 1495.91 2325.98 1496.81 2326.39 1497.85C2326.81 1498.88 2327.02 1500.06 2327.02 1501.39V1591.36C2327.02 1593.82 2327.7 1595.7 2329.06 1597.02C2330.42 1598.34 2332.13 1599 2334.18 1599C2336.24 1599 2337.93 1598.34 2339.26 1597.02C2340.59 1595.7 2341.26 1593.82 2341.26 1591.36V1541.12C2341.26 1538.89 2342.44 1537.24 2344.29 1537.24C2346.13 1537.24 2347.54 1538.89 2347.54 1541.12V1591.36C2347.54 1593.82 2348.21 1595.7 2349.54 1597.02Z" fill="black"/>
<path d="M2355.02 1449.06C2352.1 1446.08 2348.56 1444.55 2344.4 1444.46C2340.24 1444.55 2336.71 1446.08 2333.79 1449.06C2330.77 1452.12 2329.27 1455.82 2329.27 1460.15C2329.27 1464.4 2330.77 1468.05 2333.79 1471.1C2336.71 1474.06 2340.24 1475.58 2344.4 1475.67C2348.56 1475.58 2352.1 1474.06 2355.02 1471.1C2358.03 1468.05 2359.53 1464.4 2359.53 1460.15C2359.53 1455.82 2358.03 1452.12 2355.02 1449.06Z" fill="black"/>
</g>
</g>
<g id="Semibold-L">
<g id="Vector_16">
<path d="M2053.03 1595.09C2054.32 1596.36 2055.96 1597 2057.94 1597C2059.93 1597 2061.59 1596.36 2062.9 1595.09C2064.22 1593.81 2064.88 1591.98 2064.88 1589.6V1502.5C2064.88 1501.21 2065.08 1500.07 2065.49 1499.07C2065.89 1498.06 2066.65 1497.19 2067.77 1496.44L2082.32 1485.86C2083.87 1484.72 2085.1 1483.36 2086 1481.76C2086.9 1480.16 2087.43 1478.09 2087.59 1475.56L2089.09 1452.22C2089.2 1450.06 2088.68 1448.34 2087.55 1447.05C2086.41 1445.76 2084.91 1445.08 2083.04 1445.01C2081.21 1444.91 2079.65 1445.4 2078.38 1446.51C2077.1 1447.62 2076.41 1449.27 2076.3 1451.47L2074.77 1475.19L2066.96 1480.68C2065.27 1481.89 2063.76 1482.71 2062.41 1483.14C2061.07 1483.57 2059.37 1483.78 2057.31 1483.78H2048.43H2047.68H2038.79C2036.73 1483.78 2035.03 1483.57 2033.69 1483.14C2032.35 1482.71 2030.83 1481.89 2029.14 1480.68L2021.33 1475.19L2019.8 1451.47C2019.7 1449.27 2019 1447.62 2017.73 1446.51C2016.45 1445.4 2014.9 1444.91 2013.06 1445.01C2011.19 1445.08 2009.69 1445.76 2008.55 1447.05C2007.42 1448.34 2006.91 1450.06 2007.01 1452.22L2008.51 1475.56C2008.68 1478.09 2009.21 1480.16 2010.11 1481.76C2011.01 1483.36 2012.23 1484.72 2013.78 1485.86L2028.34 1496.44C2029.45 1497.19 2030.21 1498.06 2030.62 1499.07C2031.02 1500.07 2031.22 1501.21 2031.22 1502.5V1589.6C2031.22 1591.98 2031.88 1593.81 2033.2 1595.09C2034.52 1596.36 2036.17 1597 2038.16 1597C2040.15 1597 2041.79 1596.36 2043.07 1595.09C2044.36 1593.81 2045.01 1591.98 2045.01 1589.6V1540.97C2045.01 1538.81 2046.15 1537.21 2047.94 1537.21C2049.73 1537.21 2051.09 1538.81 2051.09 1540.97V1589.6C2051.09 1591.98 2051.74 1593.81 2053.03 1595.09Z" fill="black"/>
<path d="M2058.33 1451.83C2055.5 1448.95 2052.08 1447.47 2048.05 1447.38C2044.03 1447.47 2040.6 1448.95 2037.77 1451.83C2034.86 1454.8 2033.4 1458.38 2033.4 1462.57C2033.4 1466.69 2034.86 1470.22 2037.77 1473.17C2040.6 1476.04 2044.03 1477.51 2048.05 1477.6C2052.08 1477.51 2055.5 1476.04 2058.33 1473.17C2061.24 1470.22 2062.7 1466.69 2062.7 1462.57C2062.7 1458.38 2061.24 1454.8 2058.33 1451.83Z" fill="black"/>
</g>
</g>
<g id="Medium-L">
<g id="Vector_17">
<path d="M1755.12 1593.12C1756.38 1594.37 1757.99 1595 1759.94 1595C1761.89 1595 1763.51 1594.37 1764.8 1593.12C1766.09 1591.87 1766.74 1590.08 1766.74 1587.75V1502.36C1766.74 1501.1 1766.93 1499.98 1767.33 1499C1767.73 1498.02 1768.47 1497.16 1769.57 1496.43L1783.83 1486.05C1785.35 1484.94 1786.56 1483.6 1787.44 1482.03C1788.32 1480.46 1788.84 1478.44 1789 1475.95L1790.47 1453.08C1790.57 1450.96 1790.07 1449.27 1788.96 1448.01C1787.85 1446.74 1786.37 1446.08 1784.54 1446.01C1782.74 1445.91 1781.22 1446.4 1779.97 1447.48C1778.72 1448.57 1778.04 1450.19 1777.93 1452.34L1776.43 1475.6L1768.78 1480.97C1767.12 1482.16 1765.64 1482.97 1764.32 1483.39C1763 1483.81 1761.33 1484.02 1759.31 1484.02H1750.61H1749.87H1741.17C1739.15 1484.02 1737.48 1483.81 1736.16 1483.39C1734.85 1482.97 1733.36 1482.16 1731.7 1480.97L1724.05 1475.6L1722.55 1452.34C1722.44 1450.19 1721.77 1448.57 1720.52 1447.48C1719.26 1446.4 1717.74 1445.91 1715.94 1446.01C1714.11 1446.08 1712.64 1446.74 1711.52 1448.01C1710.41 1449.27 1709.91 1450.96 1710.01 1453.08L1711.48 1475.95C1711.64 1478.44 1712.16 1480.46 1713.05 1482.03C1713.93 1483.6 1715.13 1484.94 1716.65 1486.05L1730.91 1496.43C1732.01 1497.16 1732.75 1498.02 1733.15 1499C1733.55 1499.98 1733.75 1501.1 1733.75 1502.36V1587.75C1733.75 1590.08 1734.39 1591.87 1735.68 1593.12C1736.97 1594.37 1738.59 1595 1740.54 1595C1742.49 1595 1744.1 1594.37 1745.36 1593.12C1746.63 1591.87 1747.26 1590.08 1747.26 1587.75V1540.07C1747.26 1537.96 1748.38 1536.39 1750.13 1536.39C1751.88 1536.39 1753.22 1537.96 1753.22 1540.07V1587.75C1753.22 1590.08 1753.85 1591.87 1755.12 1593.12Z" fill="black"/>
<path d="M1760.32 1452.7C1757.54 1449.87 1754.19 1448.42 1750.24 1448.34C1746.3 1448.42 1742.94 1449.87 1740.17 1452.7C1737.31 1455.61 1735.88 1459.12 1735.88 1463.23C1735.88 1467.26 1737.31 1470.72 1740.17 1473.62C1742.94 1476.43 1746.3 1477.87 1750.24 1477.96C1754.19 1477.87 1757.54 1476.43 1760.32 1473.62C1763.17 1470.72 1764.6 1467.26 1764.6 1463.23C1764.6 1459.12 1763.17 1455.61 1760.32 1452.7Z" fill="black"/>
</g>
</g>
<g id="Regular-L">
<g id="Vector_18">
<path d="M1459.21 1591.16C1460.45 1592.39 1462.02 1593 1463.93 1593C1465.84 1593 1467.43 1592.39 1468.7 1591.16C1469.96 1589.93 1470.59 1588.18 1470.59 1585.89V1502.23C1470.59 1501 1470.79 1499.9 1471.18 1498.93C1471.56 1497.97 1472.3 1497.13 1473.37 1496.41L1487.34 1486.24C1488.84 1485.16 1490.01 1483.85 1490.88 1482.31C1491.74 1480.77 1492.25 1478.79 1492.41 1476.35L1493.85 1453.94C1493.95 1451.86 1493.46 1450.2 1492.37 1448.97C1491.28 1447.73 1489.84 1447.08 1488.04 1447.01C1486.28 1446.91 1484.78 1447.39 1483.56 1448.45C1482.33 1449.52 1481.67 1451.1 1481.56 1453.21L1480.1 1476L1472.59 1481.27C1470.97 1482.43 1469.52 1483.22 1468.23 1483.63C1466.94 1484.05 1465.3 1484.25 1463.32 1484.25H1454.79H1454.07H1445.54C1443.56 1484.25 1441.93 1484.05 1440.64 1483.63C1439.35 1483.22 1437.89 1482.43 1436.27 1481.27L1428.76 1476L1427.3 1453.21C1427.19 1451.1 1426.53 1449.52 1425.3 1448.45C1424.08 1447.39 1422.58 1446.91 1420.82 1447.01C1419.03 1447.08 1417.58 1447.73 1416.49 1448.97C1415.4 1450.2 1414.91 1451.86 1415.01 1453.94L1416.45 1476.35C1416.61 1478.79 1417.12 1480.77 1417.98 1482.31C1418.85 1483.85 1420.03 1485.16 1421.52 1486.24L1435.49 1496.41C1436.57 1497.13 1437.3 1497.97 1437.68 1498.93C1438.07 1499.9 1438.27 1501 1438.27 1502.23V1585.89C1438.27 1588.18 1438.9 1589.93 1440.16 1591.16C1441.43 1592.39 1443.02 1593 1444.93 1593C1446.84 1593 1448.41 1592.39 1449.65 1591.16C1450.89 1589.93 1451.51 1588.18 1451.51 1585.89V1539.18C1451.51 1537.1 1452.61 1535.57 1454.32 1535.57C1456.04 1535.57 1457.35 1537.1 1457.35 1539.18V1585.89C1457.35 1588.18 1457.97 1589.93 1459.21 1591.16Z" fill="black"/>
<path d="M1464.3 1453.56C1461.59 1450.8 1458.3 1449.37 1454.43 1449.29C1450.57 1449.37 1447.27 1450.8 1444.56 1453.56C1441.76 1456.41 1440.36 1459.85 1440.36 1463.88C1440.36 1467.83 1441.76 1471.22 1444.56 1474.06C1447.27 1476.81 1450.57 1478.23 1454.43 1478.31C1458.3 1478.23 1461.59 1476.81 1464.3 1474.06C1467.1 1471.22 1468.5 1467.83 1468.5 1463.88C1468.5 1459.85 1467.1 1456.41 1464.3 1453.56Z" fill="black"/>
</g>
</g>
<g id="Light-L">
<g id="Vector_19">
<path d="M1163.6 1590.19C1164.83 1591.4 1166.38 1592 1168.26 1592C1170.15 1592 1171.71 1591.4 1172.96 1590.19C1174.21 1588.98 1174.83 1587.24 1174.83 1584.99V1502.47C1174.83 1501.26 1175.02 1500.17 1175.41 1499.22C1175.79 1498.27 1176.51 1497.44 1177.57 1496.73L1191.35 1486.7C1192.82 1485.63 1193.99 1484.34 1194.84 1482.82C1195.69 1481.31 1196.19 1479.35 1196.35 1476.95L1197.77 1454.84C1197.87 1452.79 1197.38 1451.16 1196.31 1449.94C1195.23 1448.72 1193.81 1448.07 1192.04 1448.01C1190.3 1447.91 1188.83 1448.38 1187.62 1449.43C1186.41 1450.48 1185.75 1452.05 1185.65 1454.13L1184.21 1476.6L1176.8 1481.8C1175.2 1482.95 1173.77 1483.73 1172.5 1484.13C1171.22 1484.54 1169.61 1484.74 1167.66 1484.74H1159.24H1158.54H1150.12C1148.17 1484.74 1146.56 1484.54 1145.28 1484.13C1144.01 1483.73 1142.58 1482.95 1140.98 1481.8L1133.58 1476.6L1132.13 1454.13C1132.03 1452.05 1131.37 1450.48 1130.16 1449.43C1128.95 1448.38 1127.48 1447.91 1125.74 1448.01C1123.97 1448.07 1122.55 1448.72 1121.47 1449.94C1120.4 1451.16 1119.91 1452.79 1120.01 1454.84L1121.43 1476.95C1121.59 1479.35 1122.09 1481.31 1122.94 1482.82C1123.79 1484.34 1124.96 1485.63 1126.43 1486.7L1140.21 1496.73C1141.27 1497.44 1141.99 1498.27 1142.37 1499.22C1142.76 1500.17 1142.95 1501.26 1142.95 1502.47V1584.99C1142.95 1587.24 1143.57 1588.98 1144.82 1590.19C1146.07 1591.4 1147.63 1592 1149.52 1592C1151.4 1592 1152.95 1591.4 1154.18 1590.19C1155.4 1588.98 1156.01 1587.24 1156.01 1584.99V1538.92C1156.01 1536.87 1157.09 1535.36 1158.78 1535.36C1160.48 1535.36 1161.77 1536.87 1161.77 1538.92V1584.99C1161.77 1587.24 1162.38 1588.98 1163.6 1590.19Z" fill="black"/>
<path d="M1168.63 1454.47C1165.95 1451.74 1162.7 1450.34 1158.89 1450.26C1155.08 1450.34 1151.83 1451.74 1149.15 1454.47C1146.39 1457.28 1145.01 1460.68 1145.01 1464.65C1145.01 1468.54 1146.39 1471.89 1149.15 1474.69C1151.83 1477.4 1155.08 1478.8 1158.89 1478.88C1162.7 1478.8 1165.95 1477.4 1168.63 1474.69C1171.39 1471.89 1172.77 1468.54 1172.77 1464.65C1172.77 1460.68 1171.39 1457.28 1168.63 1454.47Z" fill="black"/>
</g>
</g>
<g id="Thin-L">
<g id="Vector_20">
<path d="M865.696 1589.22C866.893 1590.41 868.413 1591 870.258 1591C872.103 1591 873.636 1590.41 874.858 1589.22C876.08 1588.04 876.69 1586.34 876.69 1584.14V1503.34C876.69 1502.15 876.878 1501.08 877.253 1500.15C877.627 1499.22 878.333 1498.41 879.369 1497.72L892.867 1487.9C894.307 1486.85 895.445 1485.58 896.279 1484.1C897.113 1482.61 897.606 1480.7 897.758 1478.35L899.147 1456.7C899.248 1454.7 898.773 1453.09 897.72 1451.9C896.667 1450.7 895.273 1450.07 893.538 1450.01C891.836 1449.91 890.393 1450.38 889.21 1451.4C888.026 1452.43 887.384 1453.96 887.283 1456L885.868 1478.01L878.621 1483.1C877.055 1484.22 875.649 1484.98 874.403 1485.38C873.157 1485.78 871.579 1485.98 869.667 1485.98H861.427H860.733H852.494C850.582 1485.98 849.003 1485.78 847.758 1485.38C846.512 1484.98 845.106 1484.22 843.539 1483.1L836.293 1478.01L834.878 1456C834.776 1453.96 834.134 1452.43 832.951 1451.4C831.767 1450.38 830.325 1449.91 828.623 1450.01C826.888 1450.07 825.494 1450.7 824.441 1451.9C823.388 1453.09 822.912 1454.7 823.013 1456.7L824.403 1478.35C824.555 1480.7 825.047 1482.61 825.882 1484.1C826.716 1485.58 827.853 1486.85 829.294 1487.9L842.791 1497.72C843.828 1498.41 844.533 1499.22 844.908 1500.15C845.283 1501.08 845.47 1502.15 845.47 1503.34V1584.14C845.47 1586.34 846.081 1588.04 847.303 1589.22C848.524 1590.41 850.057 1591 851.903 1591C853.747 1591 855.268 1590.41 856.464 1589.22C857.661 1588.04 858.259 1586.34 858.259 1584.14V1539.02C858.259 1537.02 859.318 1535.54 860.977 1535.54C862.635 1535.54 863.902 1537.02 863.902 1539.02V1584.14C863.902 1586.34 864.5 1588.04 865.696 1589.22Z" fill="black"/>
<path d="M870.615 1456.34C867.992 1453.67 864.813 1452.29 861.08 1452.21C857.347 1452.29 854.169 1453.67 851.546 1456.34C848.842 1459.09 847.49 1462.41 847.49 1466.3C847.49 1470.12 848.842 1473.39 851.546 1476.13C854.169 1478.79 857.347 1480.16 861.08 1480.24C864.813 1480.16 867.992 1478.79 870.615 1476.13C873.319 1473.39 874.671 1470.12 874.671 1466.3C874.671 1462.41 873.319 1459.09 870.615 1456.34Z" fill="black"/>
</g>
</g>
<g id="Ultralight-L">
<g id="Vector_21">
<path d="M568.788 1587.26C569.959 1588.42 571.447 1589 573.253 1589C575.058 1589 576.559 1588.42 577.755 1587.26C578.95 1586.1 579.548 1584.44 579.548 1582.28V1503.2C579.548 1502.04 579.731 1501 580.098 1500.09C580.465 1499.18 581.156 1498.38 582.17 1497.7L595.38 1488.09C596.79 1487.07 597.903 1485.83 598.72 1484.37C599.536 1482.92 600.019 1481.04 600.167 1478.74L601.527 1457.56C601.626 1455.6 601.16 1454.03 600.13 1452.86C599.1 1451.69 597.735 1451.07 596.037 1451.01C594.371 1450.91 592.959 1451.37 591.801 1452.37C590.643 1453.38 590.014 1454.88 589.915 1456.87L588.53 1478.41L581.438 1483.39C579.905 1484.49 578.528 1485.24 577.309 1485.63C576.09 1486.02 574.545 1486.21 572.674 1486.21H564.61H563.93H555.866C553.995 1486.21 552.45 1486.02 551.231 1485.63C550.012 1485.24 548.636 1484.49 547.102 1483.39L540.01 1478.41L538.625 1456.87C538.526 1454.88 537.897 1453.38 536.739 1452.37C535.581 1451.37 534.169 1450.91 532.503 1451.01C530.805 1451.07 529.44 1451.69 528.41 1452.86C527.38 1454.03 526.914 1455.6 527.013 1457.56L528.373 1478.74C528.521 1481.04 529.004 1482.92 529.82 1484.37C530.637 1485.83 531.75 1487.07 533.16 1488.09L546.37 1497.7C547.384 1498.38 548.075 1499.18 548.442 1500.09C548.809 1501 548.992 1502.04 548.992 1503.2V1582.28C548.992 1584.44 549.59 1586.1 550.785 1587.26C551.981 1588.42 553.482 1589 555.288 1589C557.093 1589 558.581 1588.42 559.752 1587.26C560.923 1586.1 561.508 1584.44 561.508 1582.28V1538.13C561.508 1536.17 562.546 1534.72 564.169 1534.72C565.792 1534.72 567.032 1536.17 567.032 1538.13V1582.28C567.032 1584.44 567.617 1586.1 568.788 1587.26Z" fill="black"/>
<path d="M573.602 1457.2C571.034 1454.59 567.924 1453.24 564.27 1453.16C560.616 1453.24 557.506 1454.59 554.939 1457.2C552.292 1459.9 550.969 1463.15 550.969 1466.95C550.969 1470.69 552.292 1473.9 554.939 1476.58C557.506 1479.18 560.616 1480.52 564.27 1480.6C567.924 1480.52 571.034 1479.18 573.602 1476.58C576.248 1473.9 577.571 1470.69 577.571 1466.95C577.571 1463.15 576.248 1459.9 573.602 1457.2Z" fill="black"/>
</g>
</g>
<g id="Black-M">
<g id="Vector_22">
<path d="M2941.49 1159.27C2942.65 1160.42 2944.12 1161 2945.92 1161C2947.71 1161 2949.2 1160.42 2950.39 1159.27C2951.57 1158.12 2952.17 1156.48 2952.17 1154.33V1075.83C2952.17 1074.67 2952.35 1073.64 2952.71 1072.73C2953.08 1071.83 2953.76 1071.04 2954.77 1070.36L2967.88 1060.82C2969.28 1059.8 2970.39 1058.57 2971.2 1057.13C2972.01 1055.69 2972.49 1053.83 2972.64 1051.54L2973.99 1030.51C2974.09 1028.56 2973.62 1027.01 2972.6 1025.84C2971.58 1024.68 2970.22 1024.07 2968.54 1024.01C2966.88 1023.91 2965.48 1024.36 2964.33 1025.36C2963.18 1026.36 2962.56 1027.85 2962.46 1029.83L2961.08 1051.21L2954.04 1056.16C2952.52 1057.25 2951.15 1057.99 2949.94 1058.38C2948.73 1058.76 2947.2 1058.96 2945.34 1058.96H2937.34H2936.66H2928.66C2926.8 1058.96 2925.27 1058.76 2924.06 1058.38C2922.85 1057.99 2921.48 1057.25 2919.96 1056.16L2912.92 1051.21L2911.54 1029.83C2911.44 1027.85 2910.82 1026.36 2909.67 1025.36C2908.52 1024.36 2907.12 1023.91 2905.46 1024.01C2903.78 1024.07 2902.42 1024.68 2901.4 1025.84C2900.38 1027.01 2899.91 1028.56 2900.01 1030.51L2901.36 1051.54C2901.51 1053.83 2901.99 1055.69 2902.8 1057.13C2903.61 1058.57 2904.72 1059.8 2906.12 1060.82L2919.23 1070.36C2920.24 1071.04 2920.92 1071.83 2921.29 1072.73C2921.65 1073.64 2921.83 1074.67 2921.83 1075.83V1154.33C2921.83 1156.48 2922.43 1158.12 2923.61 1159.27C2924.8 1160.42 2926.29 1161 2928.08 1161C2929.88 1161 2931.35 1160.42 2932.51 1159.27C2933.68 1158.12 2934.26 1156.48 2934.26 1154.33V1110.5C2934.26 1108.55 2935.29 1107.11 2936.9 1107.11C2938.51 1107.11 2939.74 1108.55 2939.74 1110.5V1154.33C2939.74 1156.48 2940.32 1158.12 2941.49 1159.27Z" fill="black"/>
<path d="M2946.26 1030.16C2943.72 1027.56 2940.63 1026.23 2937 1026.15C2933.37 1026.23 2930.28 1027.56 2927.74 1030.16C2925.11 1032.83 2923.79 1036.06 2923.79 1039.84C2923.79 1043.55 2925.11 1046.73 2927.74 1049.39C2930.28 1051.97 2933.37 1053.3 2937 1053.38C2940.63 1053.3 2943.72 1051.97 2946.26 1049.39C2948.89 1046.73 2950.21 1043.55 2950.21 1039.84C2950.21 1036.06 2948.89 1032.83 2946.26 1030.16Z" fill="black"/>
</g>
</g>
<g id="Heavy-M">
<g id="Vector_23">
<path d="M2643.92 1159.29C2645.07 1160.43 2646.53 1161 2648.3 1161C2650.07 1161 2651.54 1160.43 2652.71 1159.29C2653.88 1158.14 2654.46 1156.51 2654.46 1154.38V1076.45C2654.46 1075.3 2654.64 1074.27 2655 1073.38C2655.36 1072.48 2656.04 1071.7 2657.03 1071.03L2669.97 1061.55C2671.35 1060.54 2672.44 1059.32 2673.24 1057.89C2674.04 1056.46 2674.51 1054.61 2674.66 1052.34L2675.99 1031.46C2676.08 1029.53 2675.63 1027.98 2674.62 1026.83C2673.61 1025.68 2672.27 1025.07 2670.61 1025.01C2668.98 1024.92 2667.6 1025.36 2666.46 1026.35C2665.33 1027.34 2664.71 1028.82 2664.62 1030.79L2663.26 1052.01L2656.31 1056.92C2654.81 1058.01 2653.46 1058.74 2652.27 1059.12C2651.08 1059.51 2649.56 1059.7 2647.73 1059.7H2639.83H2639.17H2631.27C2629.44 1059.7 2627.92 1059.51 2626.73 1059.12C2625.54 1058.74 2624.19 1058.01 2622.69 1056.92L2615.74 1052.01L2614.38 1030.79C2614.29 1028.82 2613.67 1027.34 2612.54 1026.35C2611.4 1025.36 2610.02 1024.92 2608.39 1025.01C2606.73 1025.07 2605.39 1025.68 2604.38 1026.83C2603.37 1027.98 2602.92 1029.53 2603.01 1031.46L2604.34 1052.34C2604.49 1054.61 2604.96 1056.46 2605.76 1057.89C2606.56 1059.32 2607.65 1060.54 2609.03 1061.55L2621.97 1071.03C2622.96 1071.7 2623.64 1072.48 2624 1073.38C2624.36 1074.27 2624.54 1075.3 2624.54 1076.45V1154.38C2624.54 1156.51 2625.12 1158.14 2626.29 1159.29C2627.46 1160.43 2628.93 1161 2630.7 1161C2632.47 1161 2633.93 1160.43 2635.08 1159.29C2636.22 1158.14 2636.8 1156.51 2636.8 1154.38V1110.87C2636.8 1108.93 2637.81 1107.5 2639.4 1107.5C2640.99 1107.5 2642.2 1108.93 2642.2 1110.87V1154.38C2642.2 1156.51 2642.78 1158.14 2643.92 1159.29Z" fill="black"/>
<path d="M2648.64 1031.11C2646.12 1028.54 2643.08 1027.21 2639.5 1027.13C2635.92 1027.21 2632.88 1028.54 2630.36 1031.11C2627.77 1033.77 2626.47 1036.97 2626.47 1040.72C2626.47 1044.4 2627.77 1047.56 2630.36 1050.21C2632.88 1052.77 2635.92 1054.09 2639.5 1054.17C2643.08 1054.09 2646.12 1052.77 2648.64 1050.21C2651.23 1047.56 2652.53 1044.4 2652.53 1040.72C2652.53 1036.97 2651.23 1033.77 2648.64 1031.11Z" fill="black"/>
</g>
</g>
<g id="Bold-M">
<g id="Vector_24">
<path d="M2346.57 1154.04C2347.65 1155.1 2349.02 1155.63 2350.69 1155.63C2352.36 1155.63 2353.74 1155.1 2354.85 1154.04C2355.95 1152.97 2356.5 1151.45 2356.5 1149.47V1076.9C2356.5 1075.83 2356.67 1074.88 2357.01 1074.04C2357.35 1073.21 2357.99 1072.48 2358.92 1071.86L2371.11 1063.04C2372.42 1062.09 2373.44 1060.96 2374.2 1059.62C2374.95 1058.29 2375.4 1056.57 2375.53 1054.46L2376.79 1035.02C2376.88 1033.22 2376.45 1031.78 2375.5 1030.7C2374.55 1029.63 2373.29 1029.07 2371.72 1029.01C2370.18 1028.92 2368.88 1029.34 2367.81 1030.26C2366.74 1031.18 2366.16 1032.56 2366.07 1034.39L2364.79 1054.15L2358.25 1058.72C2356.83 1059.73 2355.56 1060.42 2354.44 1060.77C2353.31 1061.13 2351.88 1061.31 2350.16 1061.31H2342.71H2342.09H2334.64C2332.92 1061.31 2331.49 1061.13 2330.36 1060.77C2329.24 1060.42 2327.97 1059.73 2326.55 1058.72L2320.01 1054.15L2318.73 1034.39C2318.64 1032.56 2318.06 1031.18 2316.99 1030.26C2315.92 1029.34 2314.62 1028.92 2313.08 1029.01C2311.51 1029.07 2310.25 1029.63 2309.3 1030.7C2308.35 1031.78 2307.92 1033.22 2308.01 1035.02L2309.27 1054.46C2309.4 1056.57 2309.85 1058.29 2310.6 1059.62C2311.36 1060.96 2312.38 1062.09 2313.69 1063.04L2325.88 1071.86C2326.81 1072.48 2327.45 1073.21 2327.79 1074.04C2328.13 1074.88 2328.3 1075.83 2328.3 1076.9V1149.47C2328.3 1151.45 2328.85 1152.97 2329.95 1154.04C2331.06 1155.1 2332.44 1155.63 2334.11 1155.63C2335.78 1155.63 2337.15 1155.1 2338.23 1154.04C2339.31 1152.97 2339.85 1151.45 2339.85 1149.47V1108.95C2339.85 1107.15 2340.81 1105.82 2342.31 1105.82C2343.8 1105.82 2344.95 1107.15 2344.95 1108.95V1149.47C2344.95 1151.45 2345.49 1152.97 2346.57 1154.04Z" fill="black"/>
<path d="M2351.01 1034.69C2348.64 1032.29 2345.77 1031.06 2342.4 1030.99C2339.03 1031.06 2336.16 1032.29 2333.79 1034.69C2331.34 1037.16 2330.12 1040.15 2330.12 1043.64C2330.12 1047.07 2331.34 1050.01 2333.79 1052.47C2336.16 1054.86 2339.03 1056.09 2342.4 1056.16C2345.77 1056.09 2348.64 1054.86 2351.01 1052.47C2353.46 1050.01 2354.68 1047.07 2354.68 1043.64C2354.68 1040.15 2353.46 1037.16 2351.01 1034.69Z" fill="black"/>
</g>
</g>
<g id="Semibold-M">
<g id="Vector_25">
<path d="M2050 1150.46C2051.04 1151.49 2052.35 1152 2053.95 1152C2055.55 1152 2056.88 1151.49 2057.94 1150.46C2059 1149.44 2059.53 1147.97 2059.53 1146.06V1076.15C2059.53 1075.12 2059.69 1074.2 2060.01 1073.4C2060.34 1072.59 2060.95 1071.89 2061.85 1071.29L2073.55 1062.79C2074.79 1061.88 2075.78 1060.79 2076.5 1059.5C2077.23 1058.22 2077.65 1056.56 2077.78 1054.53L2078.99 1035.8C2079.08 1034.06 2078.66 1032.68 2077.75 1031.64C2076.84 1030.61 2075.63 1030.06 2074.13 1030.01C2072.65 1029.92 2071.4 1030.32 2070.38 1031.21C2069.35 1032.1 2068.79 1033.43 2068.71 1035.19L2067.48 1054.23L2061.2 1058.64C2059.84 1059.61 2058.62 1060.27 2057.55 1060.61C2056.47 1060.96 2055.1 1061.13 2053.44 1061.13H2046.3H2045.7H2038.56C2036.9 1061.13 2035.53 1060.96 2034.45 1060.61C2033.38 1060.27 2032.16 1059.61 2030.8 1058.64L2024.52 1054.23L2023.29 1035.19C2023.21 1033.43 2022.65 1032.1 2021.62 1031.21C2020.6 1030.32 2019.35 1029.92 2017.87 1030.01C2016.37 1030.06 2015.16 1030.61 2014.25 1031.64C2013.34 1032.68 2012.92 1034.06 2013.01 1035.8L2014.22 1054.53C2014.35 1056.56 2014.77 1058.22 2015.5 1059.5C2016.22 1060.79 2017.21 1061.88 2018.45 1062.79L2030.15 1071.29C2031.05 1071.89 2031.66 1072.59 2031.99 1073.4C2032.31 1074.2 2032.47 1075.12 2032.47 1076.15V1146.06C2032.47 1147.97 2033 1149.44 2034.06 1150.46C2035.12 1151.49 2036.45 1152 2038.05 1152C2039.65 1152 2040.96 1151.49 2042 1150.46C2043.04 1149.44 2043.55 1147.97 2043.55 1146.06V1107.03C2043.55 1105.29 2044.47 1104.01 2045.91 1104.01C2047.35 1104.01 2048.45 1105.29 2048.45 1107.03V1146.06C2048.45 1147.97 2048.96 1149.44 2050 1150.46Z" fill="black"/>
<path d="M2054.26 1035.48C2051.99 1033.17 2049.24 1031.98 2046 1031.91C2042.76 1031.98 2040.01 1033.17 2037.74 1035.48C2035.39 1037.86 2034.22 1040.74 2034.22 1044.1C2034.22 1047.41 2035.39 1050.24 2037.74 1052.61C2040.01 1054.91 2042.76 1056.1 2046 1056.16C2049.24 1056.1 2051.99 1054.91 2054.26 1052.61C2056.61 1050.24 2057.78 1047.41 2057.78 1044.1C2057.78 1040.74 2056.61 1037.86 2054.26 1035.48Z" fill="black"/>
</g>
</g>
<g id="Medium-M">
<g id="Vector_26">
<path d="M1752.88 1147.51C1753.88 1148.5 1755.16 1149 1756.71 1149C1758.26 1149 1759.55 1148.5 1760.58 1147.51C1761.6 1146.52 1762.12 1145.1 1762.12 1143.26V1075.64C1762.12 1074.64 1762.28 1073.75 1762.59 1072.97C1762.91 1072.19 1763.5 1071.52 1764.37 1070.93L1775.71 1062.72C1776.92 1061.84 1777.88 1060.78 1778.58 1059.54C1779.28 1058.29 1779.69 1056.69 1779.82 1054.72L1780.99 1036.61C1781.07 1034.93 1780.67 1033.59 1779.79 1032.59C1778.9 1031.59 1777.73 1031.06 1776.27 1031.01C1774.84 1030.93 1773.63 1031.31 1772.64 1032.17C1771.64 1033.03 1771.1 1034.32 1771.02 1036.02L1769.83 1054.44L1763.74 1058.7C1762.42 1059.64 1761.24 1060.28 1760.2 1060.61C1759.15 1060.94 1757.82 1061.11 1756.22 1061.11H1749.29H1748.71H1741.78C1740.18 1061.11 1738.85 1060.94 1737.8 1060.61C1736.76 1060.28 1735.58 1059.64 1734.26 1058.7L1728.17 1054.44L1726.98 1036.02C1726.9 1034.32 1726.36 1033.03 1725.36 1032.17C1724.37 1031.31 1723.16 1030.93 1721.73 1031.01C1720.27 1031.06 1719.1 1031.59 1718.21 1032.59C1717.33 1033.59 1716.93 1034.93 1717.01 1036.61L1718.18 1054.72C1718.31 1056.69 1718.72 1058.29 1719.42 1059.54C1720.12 1060.78 1721.08 1061.84 1722.29 1062.72L1733.63 1070.93C1734.5 1071.52 1735.09 1072.19 1735.41 1072.97C1735.72 1073.75 1735.88 1074.64 1735.88 1075.64V1143.26C1735.88 1145.1 1736.4 1146.52 1737.42 1147.51C1738.45 1148.5 1739.74 1149 1741.29 1149C1742.84 1149 1744.12 1148.5 1745.12 1147.51C1746.13 1146.52 1746.63 1145.1 1746.63 1143.26V1105.5C1746.63 1103.82 1747.52 1102.58 1748.91 1102.58C1750.31 1102.58 1751.37 1103.82 1751.37 1105.5V1143.26C1751.37 1145.1 1751.87 1146.52 1752.88 1147.51Z" fill="black"/>
<path d="M1757.01 1036.3C1754.81 1034.07 1752.14 1032.92 1749 1032.85C1745.86 1032.92 1743.19 1034.07 1740.99 1036.3C1738.72 1038.61 1737.58 1041.39 1737.58 1044.64C1737.58 1047.84 1738.72 1050.58 1740.99 1052.87C1743.19 1055.1 1745.86 1056.24 1749 1056.31C1752.14 1056.24 1754.81 1055.1 1757.01 1052.87C1759.28 1050.58 1760.42 1047.84 1760.42 1044.64C1760.42 1041.39 1759.28 1038.61 1757.01 1036.3Z" fill="black"/>
</g>
</g>
<g id="Regular-M">
<g id="Vector_27">
<path d="M1457.11 1146.85C1458.09 1147.82 1459.34 1148.3 1460.86 1148.3C1462.37 1148.3 1463.63 1147.82 1464.64 1146.85C1465.64 1145.88 1466.14 1144.49 1466.14 1142.69V1076.62C1466.14 1075.64 1466.3 1074.77 1466.61 1074.01C1466.92 1073.25 1467.5 1072.59 1468.35 1072.02L1479.45 1063.99C1480.63 1063.13 1481.56 1062.1 1482.25 1060.88C1482.94 1059.67 1483.34 1058.1 1483.47 1056.18L1484.61 1038.48C1484.69 1036.84 1484.3 1035.53 1483.44 1034.55C1482.57 1033.57 1481.42 1033.06 1480 1033.01C1478.6 1032.93 1477.41 1033.31 1476.44 1034.15C1475.47 1034.99 1474.94 1036.24 1474.85 1037.91L1473.69 1055.9L1467.73 1060.06C1466.44 1060.98 1465.29 1061.61 1464.26 1061.93C1463.24 1062.26 1461.94 1062.42 1460.37 1062.42H1453.6H1453.02H1446.25C1444.68 1062.42 1443.38 1062.26 1442.36 1061.93C1441.33 1061.61 1440.18 1060.98 1438.89 1060.06L1432.93 1055.9L1431.77 1037.91C1431.68 1036.24 1431.15 1034.99 1430.18 1034.15C1429.21 1033.31 1428.02 1032.93 1426.62 1033.01C1425.2 1033.06 1424.05 1033.57 1423.18 1034.55C1422.32 1035.53 1421.93 1036.84 1422.01 1038.48L1423.15 1056.18C1423.28 1058.1 1423.68 1059.67 1424.37 1060.88C1425.06 1062.1 1425.99 1063.13 1427.17 1063.99L1438.27 1072.02C1439.12 1072.59 1439.7 1073.25 1440.01 1074.01C1440.32 1074.77 1440.48 1075.64 1440.48 1076.62V1142.69C1440.48 1144.49 1440.98 1145.88 1441.98 1146.85C1442.99 1147.82 1444.25 1148.3 1445.76 1148.3C1447.28 1148.3 1448.53 1147.82 1449.51 1146.85C1450.5 1145.88 1450.99 1144.49 1450.99 1142.69V1105.8C1450.99 1104.16 1451.86 1102.95 1453.22 1102.95C1454.59 1102.95 1455.63 1104.16 1455.63 1105.8V1142.69C1455.63 1144.49 1456.12 1145.88 1457.11 1146.85Z" fill="black"/>
<path d="M1461.15 1038.18C1458.99 1036 1456.38 1034.87 1453.31 1034.81C1450.24 1034.87 1447.63 1036 1445.47 1038.18C1443.25 1040.43 1442.14 1043.15 1442.14 1046.33C1442.14 1049.45 1443.25 1052.13 1445.47 1054.37C1447.63 1056.54 1450.24 1057.66 1453.31 1057.73C1456.38 1057.66 1458.99 1056.54 1461.15 1054.37C1463.37 1052.13 1464.48 1049.45 1464.48 1046.33C1464.48 1043.15 1463.37 1040.43 1461.15 1038.18Z" fill="black"/>
</g>
</g>
<g id="Light-M">
<g id="Vector_28">
<path d="M1159.92 1144.52C1160.87 1145.46 1162.08 1145.93 1163.54 1145.93C1165.01 1145.93 1166.22 1145.46 1167.19 1144.52C1168.17 1143.58 1168.65 1142.23 1168.65 1140.48V1076.34C1168.65 1075.39 1168.8 1074.55 1169.1 1073.81C1169.39 1073.07 1169.96 1072.43 1170.78 1071.88L1181.5 1064.08C1182.64 1063.25 1183.55 1062.25 1184.21 1061.07C1184.87 1059.89 1185.27 1058.37 1185.39 1056.5L1186.49 1039.32C1186.57 1037.73 1186.19 1036.46 1185.36 1035.51C1184.52 1034.56 1183.41 1034.06 1182.03 1034.01C1180.68 1033.93 1179.54 1034.3 1178.6 1035.11C1177.66 1035.93 1177.15 1037.15 1177.06 1038.76L1175.94 1056.23L1170.18 1060.27C1168.94 1061.16 1167.82 1061.77 1166.83 1062.08C1165.84 1062.4 1164.59 1062.56 1163.07 1062.56H1156.53H1155.97H1149.43C1147.91 1062.56 1146.66 1062.4 1145.67 1062.08C1144.68 1061.77 1143.56 1061.16 1142.32 1060.27L1136.56 1056.23L1135.44 1038.76C1135.35 1037.15 1134.84 1035.93 1133.9 1035.11C1132.96 1034.3 1131.82 1033.93 1130.47 1034.01C1129.09 1034.06 1127.98 1034.56 1127.14 1035.51C1126.31 1036.46 1125.93 1037.73 1126.01 1039.32L1127.11 1056.5C1127.23 1058.37 1127.63 1059.89 1128.29 1061.07C1128.95 1062.25 1129.86 1063.25 1131 1064.08L1141.72 1071.88C1142.54 1072.43 1143.11 1073.07 1143.4 1073.81C1143.7 1074.55 1143.85 1075.39 1143.85 1076.34V1140.48C1143.85 1142.23 1144.33 1143.58 1145.31 1144.52C1146.28 1145.46 1147.49 1145.93 1148.96 1145.93C1150.42 1145.93 1151.63 1145.46 1152.58 1144.52C1153.53 1143.58 1154.01 1142.23 1154.01 1140.48V1104.67C1154.01 1103.07 1154.85 1101.9 1156.17 1101.9C1157.48 1101.9 1158.49 1103.07 1158.49 1104.67V1140.48C1158.49 1142.23 1158.97 1143.58 1159.92 1144.52Z" fill="black"/>
<path d="M1163.82 1039.03C1161.74 1036.91 1159.22 1035.82 1156.25 1035.76C1153.28 1035.82 1150.76 1036.91 1148.68 1039.03C1146.53 1041.22 1145.45 1043.85 1145.45 1046.94C1145.45 1049.97 1146.53 1052.57 1148.68 1054.74C1150.76 1056.85 1153.28 1057.94 1156.25 1058C1159.22 1057.94 1161.74 1056.85 1163.82 1054.74C1165.97 1052.57 1167.05 1049.97 1167.05 1046.94C1167.05 1043.85 1165.97 1041.22 1163.82 1039.03Z" fill="black"/>
</g>
</g>
<g id="Thin-M">
<g id="Vector_29">
<path d="M863.076 1143.61C864.003 1144.54 865.181 1145 866.61 1145C868.039 1145 869.227 1144.54 870.173 1143.61C871.12 1142.69 871.593 1141.37 871.593 1139.65V1076.61C871.593 1075.68 871.738 1074.85 872.028 1074.13C872.319 1073.4 872.865 1072.77 873.668 1072.23L884.124 1064.57C885.24 1063.75 886.121 1062.76 886.768 1061.6C887.414 1060.44 887.796 1058.95 887.913 1057.11L888.99 1040.23C889.068 1038.66 888.699 1037.41 887.884 1036.48C887.068 1035.55 885.988 1035.06 884.644 1035.01C883.326 1034.93 882.208 1035.29 881.291 1036.09C880.375 1036.9 879.877 1038.09 879.799 1039.68L878.702 1056.85L873.089 1060.82C871.875 1061.7 870.786 1062.29 869.821 1062.6C868.856 1062.91 867.633 1063.07 866.152 1063.07H859.769H859.231H852.848C851.367 1063.07 850.144 1062.91 849.179 1062.6C848.214 1062.29 847.125 1061.7 845.911 1060.82L840.298 1056.85L839.201 1039.68C839.123 1038.09 838.625 1036.9 837.709 1036.09C836.792 1035.29 835.674 1034.93 834.356 1035.01C833.012 1035.06 831.932 1035.55 831.116 1036.48C830.301 1037.41 829.932 1038.66 830.01 1040.23L831.087 1057.11C831.204 1058.95 831.586 1060.44 832.232 1061.6C832.879 1062.76 833.76 1063.75 834.876 1064.57L845.332 1072.23C846.135 1072.77 846.681 1073.4 846.972 1074.13C847.262 1074.85 847.407 1075.68 847.407 1076.61V1139.65C847.407 1141.37 847.88 1142.69 848.827 1143.61C849.773 1144.54 850.961 1145 852.39 1145C853.819 1145 854.997 1144.54 855.924 1143.61C856.851 1142.69 857.314 1141.37 857.314 1139.65V1104.45C857.314 1102.89 858.135 1101.73 859.42 1101.73C860.704 1101.73 861.686 1102.89 861.686 1104.45V1139.65C861.686 1141.37 862.149 1142.69 863.076 1143.61Z" fill="black"/>
<path d="M866.886 1039.94C864.854 1037.86 862.392 1036.79 859.5 1036.73C856.608 1036.79 854.146 1037.86 852.114 1039.94C850.019 1042.09 848.972 1044.68 848.972 1047.72C848.972 1050.69 850.019 1053.25 852.114 1055.39C854.146 1057.46 856.608 1058.53 859.5 1058.59C862.392 1058.53 864.854 1057.46 866.886 1055.39C868.981 1053.25 870.028 1050.69 870.028 1047.72C870.028 1044.68 868.981 1042.09 866.886 1039.94Z" fill="black"/>
</g>
</g>
<g id="Ultralight-M">
<g id="Vector_30">
<path d="M566.74 1142.53C567.657 1143.44 568.823 1143.89 570.237 1143.89C571.652 1143.89 572.828 1143.44 573.765 1142.53C574.701 1141.63 575.17 1140.33 575.17 1138.64V1076.81C575.17 1075.9 575.314 1075.09 575.601 1074.38C575.888 1073.67 576.429 1073.04 577.224 1072.51L587.574 1065C588.679 1064.2 589.551 1063.23 590.19 1062.09C590.83 1060.96 591.208 1059.49 591.324 1057.69L592.39 1041.13C592.467 1039.59 592.102 1038.37 591.295 1037.45C590.488 1036.54 589.419 1036.06 588.088 1036.01C586.783 1035.93 585.677 1036.29 584.77 1037.07C583.862 1037.86 583.37 1039.03 583.292 1040.59L582.207 1057.43L576.65 1061.33C575.449 1062.19 574.371 1062.77 573.416 1063.07C572.461 1063.38 571.25 1063.53 569.784 1063.53H563.466H562.934H556.616C555.15 1063.53 553.939 1063.38 552.984 1063.07C552.029 1062.77 550.951 1062.19 549.75 1061.33L544.193 1057.43L543.108 1040.59C543.03 1039.03 542.538 1037.86 541.63 1037.07C540.723 1036.29 539.617 1035.93 538.312 1036.01C536.981 1036.06 535.912 1036.54 535.105 1037.45C534.298 1038.37 533.933 1039.59 534.01 1041.13L535.076 1057.69C535.192 1059.49 535.57 1060.96 536.21 1062.09C536.849 1063.23 537.721 1064.2 538.826 1065L549.176 1072.51C549.971 1073.04 550.512 1073.67 550.799 1074.38C551.086 1075.09 551.23 1075.9 551.23 1076.81V1138.64C551.23 1140.33 551.699 1141.63 552.635 1142.53C553.572 1143.44 554.748 1143.89 556.163 1143.89C557.577 1143.89 558.743 1143.44 559.66 1142.53C560.578 1141.63 561.036 1140.33 561.036 1138.64V1104.12C561.036 1102.59 561.849 1101.45 563.121 1101.45C564.392 1101.45 565.364 1102.59 565.364 1104.12V1138.64C565.364 1140.33 565.822 1141.63 566.74 1142.53Z" fill="black"/>
<path d="M570.511 1040.85C568.5 1038.81 566.063 1037.75 563.2 1037.69C560.337 1037.75 557.9 1038.81 555.889 1040.85C553.816 1042.96 552.779 1045.5 552.779 1048.47C552.779 1051.39 553.816 1053.9 555.889 1056C557.9 1058.03 560.337 1059.08 563.2 1059.14C566.063 1059.08 568.5 1058.03 570.511 1056C572.584 1053.9 573.621 1051.39 573.621 1048.47C573.621 1045.5 572.584 1042.96 570.511 1040.85Z" fill="black"/>
</g>
</g>
<g id="Ultralight-M_2">
<g id="Vector_31">
<path d="M564.106 702.482C564.782 703.201 565.64 703.56 566.682 703.56C567.723 703.56 568.589 703.201 569.279 702.482C569.969 701.764 570.313 700.735 570.313 699.395V650.366C570.313 649.643 570.419 648.999 570.631 648.434C570.842 647.87 571.241 647.377 571.826 646.956L579.447 640.997C580.26 640.361 580.902 639.592 581.373 638.691C581.844 637.791 582.122 636.627 582.208 635.2L582.992 622.065C583.05 620.849 582.781 619.878 582.187 619.152C581.592 618.425 580.805 618.044 579.825 618.008C578.865 617.947 578.05 618.228 577.382 618.851C576.714 619.475 576.351 620.405 576.294 621.642L575.495 634.994L571.404 638.083C570.519 638.766 569.725 639.227 569.022 639.469C568.319 639.71 567.427 639.83 566.348 639.83H561.696H561.304H556.652C555.573 639.83 554.681 639.71 553.978 639.469C553.275 639.227 552.481 638.766 551.596 638.083L547.505 634.994L546.706 621.642C546.649 620.405 546.286 619.475 545.618 618.851C544.95 618.228 544.135 617.947 543.175 618.008C542.195 618.044 541.408 618.425 540.813 619.152C540.219 619.878 539.95 620.849 540.008 622.065L540.792 635.2C540.878 636.627 541.156 637.791 541.627 638.691C542.098 639.592 542.74 640.361 543.553 640.997L551.174 646.956C551.759 647.377 552.158 647.87 552.369 648.434C552.581 648.999 552.687 649.643 552.687 650.366V699.395C552.687 700.735 553.031 701.764 553.721 702.482C554.411 703.201 555.277 703.56 556.318 703.56C557.36 703.56 558.218 703.201 558.894 702.482C559.569 701.764 559.907 700.735 559.907 699.395V672.019C559.907 670.803 560.505 669.905 561.441 669.905C562.378 669.905 563.093 670.803 563.093 672.019V699.395C563.093 700.735 563.431 701.764 564.106 702.482Z" fill="black"/>
<path d="M566.883 621.845C565.402 620.225 563.608 619.39 561.5 619.342C559.392 619.39 557.598 620.225 556.117 621.845C554.59 623.516 553.827 625.531 553.827 627.892C553.827 630.207 554.59 632.196 556.117 633.858C557.598 635.471 559.392 636.301 561.5 636.35C563.608 636.301 565.402 635.471 566.883 633.858C568.41 632.196 569.173 630.207 569.173 627.892C569.173 625.531 568.41 623.516 566.883 621.845Z" fill="black"/>
</g>
</g>
<g id="Ultralight-M_3">
<g id="Vector_32">
<path d="M860.487 702.815C861.173 703.545 862.045 703.91 863.103 703.91C864.161 703.91 865.04 703.545 865.741 702.815C866.441 702.085 866.792 701.04 866.792 699.679V649.877C866.792 649.142 866.899 648.488 867.114 647.914C867.329 647.341 867.734 646.84 868.328 646.413L876.069 640.36C876.895 639.714 877.547 638.933 878.026 638.018C878.504 637.103 878.787 635.921 878.874 634.472L879.671 621.129C879.729 619.894 879.456 618.907 878.852 618.17C878.248 617.432 877.449 617.045 876.454 617.008C875.478 616.946 874.65 617.231 873.972 617.865C873.293 618.498 872.925 619.443 872.867 620.699L872.055 634.262L867.899 637.4C867.001 638.093 866.194 638.562 865.48 638.807C864.766 639.052 863.86 639.175 862.764 639.175H858.038H857.64H852.915C851.818 639.175 850.913 639.052 850.199 638.807C849.484 638.562 848.678 638.093 847.779 637.4L843.623 634.262L842.812 620.699C842.754 619.443 842.386 618.498 841.707 617.865C841.028 617.231 840.201 616.946 839.225 617.008C838.23 617.045 837.43 617.432 836.826 618.17C836.223 618.907 835.95 619.894 836.008 621.129L836.805 634.472C836.892 635.921 837.174 637.103 837.653 638.018C838.131 638.933 838.783 639.714 839.609 640.36L847.35 646.413C847.945 646.84 848.349 647.341 848.564 647.914C848.779 648.488 848.887 649.142 848.887 649.877V699.679C848.887 701.04 849.237 702.085 849.938 702.815C850.638 703.545 851.518 703.91 852.576 703.91C853.634 703.91 854.506 703.545 855.192 702.815C855.878 702.085 856.221 701.04 856.221 699.679V671.872C856.221 670.637 856.829 669.724 857.78 669.724C858.731 669.724 859.457 670.637 859.457 671.872V699.679C859.457 701.04 859.8 702.085 860.487 702.815Z" fill="black"/>
<path d="M863.307 620.906C861.803 619.26 859.98 618.412 857.839 618.363C855.698 618.412 853.876 619.26 852.371 620.906C850.82 622.603 850.045 624.65 850.045 627.048C850.045 629.4 850.82 631.42 852.371 633.108C853.876 634.747 855.698 635.59 857.839 635.639C859.98 635.59 861.803 634.747 863.307 633.108C864.858 631.42 865.633 629.4 865.633 627.048C865.633 624.65 864.858 622.603 863.307 620.906Z" fill="black"/>
</g>
</g>
<g id="Black-S">
<g id="Vector_33">
<path d="M2936.95 718.589C2937.85 719.521 2938.99 719.987 2940.37 719.987C2941.75 719.987 2942.9 719.521 2943.81 718.589C2944.73 717.657 2945.18 716.322 2945.18 714.584V650.985C2945.18 650.046 2945.32 649.211 2945.6 648.479C2945.88 647.746 2946.41 647.107 2947.19 646.561L2957.29 638.831C2958.37 638.006 2959.22 637.009 2959.84 635.841C2960.47 634.672 2960.84 633.163 2960.95 631.312L2961.99 614.273C2962.07 612.696 2961.71 611.436 2960.92 610.494C2960.13 609.552 2959.09 609.058 2957.79 609.011C2956.52 608.931 2955.44 609.295 2954.55 610.104C2953.67 610.913 2953.19 612.12 2953.11 613.724L2952.05 631.045L2946.63 635.052C2945.46 635.937 2944.4 636.536 2943.47 636.849C2942.54 637.162 2941.36 637.318 2939.93 637.318H2933.76H2933.24H2927.07C2925.64 637.318 2924.46 637.162 2923.53 636.849C2922.6 636.536 2921.54 635.937 2920.37 635.052L2914.95 631.045L2913.89 613.724C2913.81 612.12 2913.33 610.913 2912.45 610.104C2911.56 609.295 2910.48 608.931 2909.21 609.011C2907.91 609.058 2906.87 609.552 2906.08 610.494C2905.29 611.436 2904.93 612.696 2905.01 614.273L2906.05 631.312C2906.16 633.163 2906.53 634.672 2907.16 635.841C2907.78 637.009 2908.63 638.006 2909.71 638.831L2919.81 646.561C2920.59 647.107 2921.12 647.746 2921.4 648.479C2921.68 649.211 2921.82 650.046 2921.82 650.985V714.584C2921.82 716.322 2922.27 717.657 2923.19 718.589C2924.1 719.521 2925.25 719.987 2926.63 719.987C2928.01 719.987 2929.15 719.521 2930.05 718.589C2930.94 717.657 2931.39 716.322 2931.39 714.584V679.073C2931.39 677.496 2932.18 676.33 2933.42 676.33C2934.66 676.33 2935.61 677.496 2935.61 679.073V714.584C2935.61 716.322 2936.06 717.657 2936.95 718.589Z" fill="black"/>
<path d="M2940.64 613.988C2938.67 611.886 2936.29 610.804 2933.5 610.741C2930.71 610.804 2928.33 611.886 2926.36 613.988C2924.34 616.155 2923.33 618.769 2923.33 621.832C2923.33 624.835 2924.34 627.415 2926.36 629.571C2928.33 631.663 2930.71 632.74 2933.5 632.803C2936.29 632.74 2938.67 631.663 2940.64 629.571C2942.66 627.415 2943.67 624.835 2943.67 621.832C2943.67 618.769 2942.66 616.155 2940.64 613.988Z" fill="black"/>
</g>
</g>
<g id="Heavy-S">
<g id="Vector_34">
<path d="M2642.27 713.821C2643.12 714.704 2644.2 715.146 2645.51 715.146C2646.82 715.146 2647.9 714.704 2648.77 713.821C2649.63 712.938 2650.07 711.674 2650.07 710.027V649.775C2650.07 648.886 2650.2 648.095 2650.47 647.401C2650.73 646.707 2651.23 646.102 2651.97 645.584L2661.54 638.261C2662.56 637.479 2663.37 636.535 2663.96 635.428C2664.55 634.321 2664.9 632.891 2665.01 631.138L2665.99 614.996C2666.06 613.501 2665.72 612.308 2664.98 611.415C2664.23 610.523 2663.24 610.055 2662.01 610.01C2660.81 609.935 2659.78 610.28 2658.94 611.046C2658.11 611.813 2657.65 612.956 2657.58 614.475L2656.58 630.885L2651.44 634.681C2650.33 635.519 2649.33 636.087 2648.45 636.383C2647.56 636.679 2646.44 636.828 2645.09 636.828H2639.25H2638.75H2632.91C2631.56 636.828 2630.44 636.679 2629.55 636.383C2628.67 636.087 2627.67 635.519 2626.56 634.681L2621.42 630.885L2620.42 614.475C2620.35 612.956 2619.89 611.813 2619.06 611.046C2618.22 610.28 2617.19 609.935 2615.99 610.01C2614.76 610.055 2613.77 610.523 2613.02 611.415C2612.28 612.308 2611.94 613.501 2612.01 614.996L2612.99 631.138C2613.1 632.891 2613.45 634.321 2614.04 635.428C2614.63 636.535 2615.44 637.479 2616.46 638.261L2626.03 645.584C2626.77 646.102 2627.27 646.707 2627.53 647.401C2627.8 648.095 2627.93 648.886 2627.93 649.775V710.027C2627.93 711.674 2628.37 712.938 2629.23 713.821C2630.1 714.704 2631.18 715.146 2632.49 715.146C2633.8 715.146 2634.88 714.704 2635.73 713.821C2636.58 712.938 2637 711.674 2637 710.027V676.385C2637 674.891 2637.75 673.786 2638.93 673.786C2640.1 673.786 2641 674.891 2641 676.385V710.027C2641 711.674 2641.42 712.938 2642.27 713.821Z" fill="black"/>
<path d="M2645.76 614.726C2643.9 612.734 2641.65 611.709 2639 611.649C2636.35 611.709 2634.1 612.734 2632.24 614.726C2630.32 616.778 2629.36 619.255 2629.36 622.156C2629.36 625.001 2630.32 627.445 2632.24 629.488C2634.1 631.47 2636.35 632.491 2639 632.55C2641.65 632.491 2643.9 631.47 2645.76 629.488C2647.68 627.445 2648.64 625.001 2648.64 622.156C2648.64 619.255 2647.68 616.778 2645.76 614.726Z" fill="black"/>
</g>
</g>
<g id="Bold-S">
<g id="Vector_35">
<path d="M2342.59 708.41C2343.39 709.23 2344.41 709.64 2345.65 709.64C2346.88 709.64 2347.91 709.23 2348.73 708.41C2349.54 707.59 2349.95 706.416 2349.95 704.887V648.936C2349.95 648.11 2350.08 647.375 2350.33 646.731C2350.58 646.087 2351.05 645.524 2351.75 645.044L2360.79 638.244C2361.75 637.518 2362.51 636.641 2363.07 635.613C2363.63 634.585 2363.96 633.257 2364.06 631.629L2364.99 616.639C2365.06 615.251 2364.74 614.143 2364.04 613.314C2363.33 612.486 2362.4 612.051 2361.23 612.009C2360.1 611.939 2359.13 612.26 2358.34 612.971C2357.54 613.683 2357.11 614.745 2357.05 616.156L2356.1 631.394L2351.25 634.919C2350.2 635.697 2349.26 636.224 2348.42 636.5C2347.59 636.775 2346.53 636.913 2345.25 636.913H2339.73H2339.27H2333.75C2332.47 636.913 2331.41 636.775 2330.58 636.5C2329.74 636.224 2328.8 635.697 2327.75 634.919L2322.9 631.394L2321.95 616.156C2321.89 614.745 2321.46 613.683 2320.66 612.971C2319.87 612.26 2318.9 611.939 2317.77 612.009C2316.6 612.051 2315.67 612.486 2314.96 613.314C2314.26 614.143 2313.94 615.251 2314.01 616.639L2314.94 631.629C2315.04 633.257 2315.37 634.585 2315.93 635.613C2316.49 636.641 2317.25 637.518 2318.21 638.244L2327.25 645.044C2327.95 645.524 2328.42 646.087 2328.67 646.731C2328.92 647.375 2329.05 648.11 2329.05 648.936V704.887C2329.05 706.416 2329.46 707.59 2330.27 708.41C2331.09 709.23 2332.12 709.64 2333.35 709.64C2334.59 709.64 2335.61 709.23 2336.41 708.41C2337.21 707.59 2337.61 706.416 2337.61 704.887V673.646C2337.61 672.259 2338.32 671.233 2339.43 671.233C2340.54 671.233 2341.39 672.259 2341.39 673.646V704.887C2341.39 706.416 2341.79 707.59 2342.59 708.41Z" fill="black"/>
<path d="M2345.88 616.388C2344.13 614.539 2342 613.587 2339.5 613.531C2337 613.587 2334.87 614.539 2333.12 616.388C2331.3 618.295 2330.4 620.595 2330.4 623.289C2330.4 625.931 2331.3 628.2 2333.12 630.097C2334.87 631.938 2337 632.885 2339.5 632.94C2342 632.885 2344.13 631.938 2345.88 630.097C2347.7 628.2 2348.6 625.931 2348.6 623.289C2348.6 620.595 2347.7 618.295 2345.88 616.388Z" fill="black"/>
</g>
</g>
<g id="Semibold-S">
<g id="Vector_36">
<path d="M2048.47 707.208C2049.24 708.009 2050.22 708.41 2051.4 708.41C2052.59 708.41 2053.58 708.009 2054.36 707.208C2055.15 706.407 2055.54 705.259 2055.54 703.766V649.092C2055.54 648.285 2055.66 647.567 2055.9 646.938C2056.15 646.308 2056.6 645.759 2057.27 645.29L2065.95 638.645C2066.88 637.935 2067.61 637.078 2068.15 636.074C2068.68 635.069 2069 633.771 2069.1 632.18L2069.99 617.533C2070.06 616.177 2069.75 615.094 2069.07 614.284C2068.4 613.474 2067.5 613.049 2066.38 613.009C2065.29 612.941 2064.36 613.254 2063.6 613.949C2062.84 614.645 2062.42 615.682 2062.36 617.061L2061.45 631.951L2056.79 635.395C2055.78 636.156 2054.87 636.671 2054.07 636.94C2053.27 637.209 2052.25 637.344 2051.02 637.344H2045.72H2045.28H2039.98C2038.75 637.344 2037.73 637.209 2036.93 636.94C2036.13 636.671 2035.22 636.156 2034.21 635.395L2029.55 631.951L2028.64 617.061C2028.58 615.682 2028.16 614.645 2027.4 613.949C2026.64 613.254 2025.71 612.941 2024.62 613.009C2023.5 613.049 2022.6 613.474 2021.93 614.284C2021.25 615.094 2020.94 616.177 2021.01 617.533L2021.9 632.18C2022 633.771 2022.32 635.069 2022.85 636.074C2023.39 637.078 2024.12 637.935 2025.05 638.645L2033.73 645.29C2034.4 645.759 2034.85 646.308 2035.1 646.938C2035.34 647.567 2035.46 648.285 2035.46 649.092V703.766C2035.46 705.259 2035.85 706.407 2036.64 707.208C2037.42 708.009 2038.41 708.41 2039.6 708.41C2040.78 708.41 2041.76 708.009 2042.53 707.208C2043.3 706.407 2043.68 705.259 2043.68 703.766V673.238C2043.68 671.882 2044.37 670.88 2045.43 670.88C2046.5 670.88 2047.32 671.882 2047.32 673.238V703.766C2047.32 705.259 2047.7 706.407 2048.47 707.208Z" fill="black"/>
<path d="M2051.63 617.288C2049.95 615.481 2047.9 614.55 2045.5 614.496C2043.1 614.55 2041.05 615.481 2039.37 617.288C2037.63 619.151 2036.76 621.398 2036.76 624.031C2036.76 626.612 2037.63 628.83 2039.37 630.684C2041.05 632.482 2043.1 633.408 2045.5 633.462C2047.9 633.408 2049.95 632.482 2051.63 630.684C2053.37 628.83 2054.24 626.612 2054.24 624.031C2054.24 621.398 2053.37 619.151 2051.63 617.288Z" fill="black"/>
</g>
</g>
<g id="Medium-S">
<g id="Vector_37">
<path d="M1752.41 707.539C1753.15 708.326 1754.09 708.72 1755.23 708.72C1756.37 708.72 1757.32 708.326 1758.07 707.539C1758.83 706.752 1759.2 705.625 1759.2 704.158V650.453C1759.2 649.66 1759.32 648.955 1759.55 648.337C1759.78 647.718 1760.22 647.179 1760.86 646.718L1769.21 640.19C1770.1 639.493 1770.8 638.651 1771.32 637.665C1771.83 636.678 1772.14 635.404 1772.23 633.841L1773.09 619.453C1773.16 618.121 1772.86 617.057 1772.21 616.261C1771.56 615.466 1770.7 615.049 1769.62 615.009C1768.57 614.942 1767.68 615.249 1766.95 615.932C1766.22 616.616 1765.82 617.634 1765.76 618.989L1764.88 633.615L1760.4 636.999C1759.43 637.746 1758.56 638.252 1757.79 638.516C1757.02 638.78 1756.04 638.912 1754.86 638.912H1749.77H1749.34H1744.24C1743.06 638.912 1742.08 638.78 1741.31 638.516C1740.54 638.252 1739.67 637.746 1738.7 636.999L1734.22 633.615L1733.35 618.989C1733.28 617.634 1732.89 616.616 1732.15 615.932C1731.42 615.249 1730.53 614.942 1729.48 615.009C1728.4 615.049 1727.54 615.466 1726.89 616.261C1726.24 617.057 1725.95 618.121 1726.01 619.453L1726.87 633.841C1726.96 635.404 1727.27 636.678 1727.78 637.665C1728.3 638.651 1729 639.493 1729.89 640.19L1738.24 646.718C1738.88 647.179 1739.32 647.718 1739.55 648.337C1739.78 648.955 1739.9 649.66 1739.9 650.453V704.158C1739.9 705.625 1740.27 706.752 1741.03 707.539C1741.79 708.326 1742.73 708.72 1743.87 708.72C1745.02 708.72 1745.96 708.326 1746.7 707.539C1747.44 706.752 1747.81 705.625 1747.81 704.158V674.171C1747.81 672.839 1748.46 671.855 1749.49 671.855C1750.51 671.855 1751.3 672.839 1751.3 674.171V704.158C1751.3 705.625 1751.67 706.752 1752.41 707.539Z" fill="black"/>
<path d="M1755.45 619.212C1753.82 617.437 1751.86 616.523 1749.55 616.47C1747.24 616.523 1745.28 617.437 1743.65 619.212C1741.98 621.042 1741.15 623.25 1741.15 625.835C1741.15 628.371 1741.98 630.55 1743.65 632.371C1745.28 634.137 1747.24 635.047 1749.55 635.1C1751.86 635.047 1753.82 634.137 1755.45 632.371C1757.12 630.55 1757.96 628.371 1757.96 625.835C1757.96 623.25 1757.12 621.042 1755.45 619.212Z" fill="black"/>
</g>
</g>
<g id="Regular-S">
<g id="Vector_38">
<path d="M1453.78 705.357C1454.5 706.126 1455.42 706.51 1456.54 706.51C1457.65 706.51 1458.58 706.126 1459.31 705.357C1460.05 704.589 1460.42 703.488 1460.42 702.055V649.617C1460.42 648.843 1460.53 648.154 1460.76 647.551C1460.99 646.947 1461.41 646.42 1462.04 645.97L1470.19 639.596C1471.06 638.916 1471.75 638.094 1472.25 637.13C1472.75 636.167 1473.05 634.922 1473.14 633.396L1473.98 619.348C1474.04 618.047 1473.76 617.008 1473.12 616.232C1472.48 615.455 1471.64 615.047 1470.59 615.009C1469.57 614.943 1468.7 615.244 1467.98 615.911C1467.27 616.577 1466.88 617.572 1466.82 618.895L1465.96 633.176L1461.59 636.48C1460.64 637.21 1459.79 637.704 1459.04 637.961C1458.29 638.219 1457.33 638.348 1456.18 638.348H1451.2H1450.79H1445.81C1444.66 638.348 1443.7 638.219 1442.95 637.961C1442.2 637.704 1441.35 637.21 1440.4 636.48L1436.03 633.176L1435.17 618.895C1435.11 617.572 1434.72 616.577 1434.01 615.911C1433.29 615.244 1432.42 614.943 1431.4 615.009C1430.35 615.047 1429.51 615.455 1428.87 616.232C1428.23 617.008 1427.95 618.047 1428.01 619.348L1428.85 633.396C1428.94 634.922 1429.24 636.167 1429.74 637.13C1430.24 638.094 1430.93 638.916 1431.8 639.596L1439.95 645.97C1440.58 646.42 1441 646.947 1441.23 647.551C1441.46 648.154 1441.57 648.843 1441.57 649.617V702.055C1441.57 703.488 1441.94 704.589 1442.68 705.357C1443.41 706.126 1444.34 706.51 1445.45 706.51C1446.57 706.51 1447.49 706.126 1448.21 705.357C1448.93 704.589 1449.29 703.488 1449.29 702.055V672.776C1449.29 671.475 1449.93 670.514 1450.93 670.514C1451.93 670.514 1452.7 671.475 1452.7 672.776V702.055C1452.7 703.488 1453.06 704.589 1453.78 705.357Z" fill="black"/>
<path d="M1456.75 619.113C1455.17 617.38 1453.25 616.487 1451 616.435C1448.74 616.487 1446.82 617.38 1445.24 619.113C1443.6 620.899 1442.79 623.055 1442.79 625.58C1442.79 628.056 1443.6 630.183 1445.24 631.961C1446.82 633.686 1448.74 634.574 1451 634.626C1453.25 634.574 1455.17 633.686 1456.75 631.961C1458.39 630.183 1459.2 628.056 1459.2 625.58C1459.2 623.055 1458.39 620.899 1456.75 619.113Z" fill="black"/>
</g>
</g>
<g id="Light-S">
<g id="Vector_39">
<path d="M1156.22 704.402C1156.93 705.154 1157.83 705.53 1158.92 705.53C1160.01 705.53 1160.92 705.154 1161.64 704.402C1162.36 703.65 1162.72 702.573 1162.72 701.172V649.868C1162.72 649.111 1162.83 648.437 1163.05 647.846C1163.27 647.255 1163.69 646.74 1164.3 646.3L1172.28 640.064C1173.13 639.398 1173.8 638.594 1174.29 637.652C1174.79 636.709 1175.08 635.491 1175.17 633.998L1175.99 620.254C1176.05 618.981 1175.77 617.965 1175.14 617.205C1174.52 616.445 1173.7 616.046 1172.67 616.009C1171.67 615.944 1170.82 616.238 1170.12 616.891C1169.42 617.543 1169.04 618.517 1168.98 619.811L1168.14 633.783L1163.86 637.015C1162.94 637.729 1162.1 638.212 1161.37 638.465C1160.63 638.717 1159.7 638.843 1158.57 638.843H1153.7H1153.29H1148.42C1147.3 638.843 1146.36 638.717 1145.63 638.465C1144.89 638.212 1144.06 637.729 1143.13 637.015L1138.85 633.783L1138.02 619.811C1137.96 618.517 1137.58 617.543 1136.88 616.891C1136.18 616.238 1135.33 615.944 1134.32 616.009C1133.3 616.046 1132.47 616.445 1131.85 617.205C1131.23 617.965 1130.95 618.981 1131.01 620.254L1131.83 633.998C1131.92 635.491 1132.21 636.709 1132.7 637.652C1133.2 638.594 1133.87 639.398 1134.72 640.064L1142.69 646.3C1143.3 646.74 1143.72 647.255 1143.94 647.846C1144.16 648.437 1144.28 649.111 1144.28 649.868V701.172C1144.28 702.573 1144.64 703.65 1145.36 704.402C1146.08 705.154 1146.99 705.53 1148.08 705.53C1149.17 705.53 1150.06 705.154 1150.77 704.402C1151.48 703.65 1151.83 702.573 1151.83 701.172V672.526C1151.83 671.254 1152.46 670.313 1153.44 670.313C1154.42 670.313 1155.16 671.254 1155.16 672.526V701.172C1155.16 702.573 1155.52 703.65 1156.22 704.402Z" fill="black"/>
<path d="M1159.13 620.024C1157.58 618.328 1155.7 617.455 1153.5 617.404C1151.29 617.455 1149.41 618.328 1147.86 620.024C1146.27 621.772 1145.47 623.881 1145.47 626.351C1145.47 628.774 1146.27 630.855 1147.86 632.594C1149.41 634.282 1151.29 635.151 1153.5 635.201C1155.7 635.151 1157.58 634.282 1159.13 632.594C1160.73 630.855 1161.53 628.774 1161.53 626.351C1161.53 623.881 1160.73 621.772 1159.13 620.024Z" fill="black"/>
</g>
</g>
</g>
</g>
</svg>
